<mxfile host="app.diagrams.net" agent="Mozilla/5.0 (Windows NT 10.0; Win64; x64) AppleWebKit/537.36 (KHTML, like Gecko) Chrome/131.0.0.0 Safari/537.36" version="25.0.3" pages="4">
  <diagram name="Geral" id="QsA26C8Rz-LKTsgr79Ee">
    <mxGraphModel dx="1050" dy="557" grid="1" gridSize="10" guides="1" tooltips="1" connect="1" arrows="1" fold="1" page="1" pageScale="1" pageWidth="827" pageHeight="1169" math="0" shadow="0">
      <root>
        <mxCell id="0" />
        <mxCell id="1" parent="0" />
        <mxCell id="L6B9nfpbQ6dmy-ici0O5-110" value="" style="rounded=0;whiteSpace=wrap;html=1;" parent="1" vertex="1">
          <mxGeometry x="9.62" y="230" width="790" height="310" as="geometry" />
        </mxCell>
        <mxCell id="L6B9nfpbQ6dmy-ici0O5-6" value="&lt;b&gt;Load Balancer&lt;/b&gt;" style="rounded=0;whiteSpace=wrap;html=1;" parent="1" vertex="1">
          <mxGeometry x="42.12" y="250" width="733.75" height="20" as="geometry" />
        </mxCell>
        <mxCell id="L6B9nfpbQ6dmy-ici0O5-20" value="" style="endArrow=classic;html=1;rounded=0;exitX=0.5;exitY=1;exitDx=0;exitDy=0;entryX=0.5;entryY=0;entryDx=0;entryDy=0;" parent="1" source="L6B9nfpbQ6dmy-ici0O5-83" target="L6B9nfpbQ6dmy-ici0O5-85" edge="1">
          <mxGeometry width="50" height="50" relative="1" as="geometry">
            <mxPoint x="414.25" y="100" as="sourcePoint" />
            <mxPoint x="415.125" y="130" as="targetPoint" />
          </mxGeometry>
        </mxCell>
        <mxCell id="L6B9nfpbQ6dmy-ici0O5-26" value="" style="endArrow=classic;html=1;rounded=0;exitX=0.5;exitY=1;exitDx=0;exitDy=0;entryX=0.5;entryY=0;entryDx=0;entryDy=0;" parent="1" source="L6B9nfpbQ6dmy-ici0O5-85" target="L6B9nfpbQ6dmy-ici0O5-6" edge="1">
          <mxGeometry width="50" height="50" relative="1" as="geometry">
            <mxPoint x="409.0000000000001" y="220" as="sourcePoint" />
            <mxPoint x="389.62" y="310" as="targetPoint" />
          </mxGeometry>
        </mxCell>
        <mxCell id="L6B9nfpbQ6dmy-ici0O5-43" value="" style="endArrow=classic;html=1;rounded=0;exitX=0.5;exitY=1;exitDx=0;exitDy=0;entryX=0.5;entryY=0;entryDx=0;entryDy=0;" parent="1" source="L6B9nfpbQ6dmy-ici0O5-6" target="L6B9nfpbQ6dmy-ici0O5-94" edge="1">
          <mxGeometry width="50" height="50" relative="1" as="geometry">
            <mxPoint x="391.12" y="330" as="sourcePoint" />
            <mxPoint x="415.12" y="340" as="targetPoint" />
          </mxGeometry>
        </mxCell>
        <mxCell id="L6B9nfpbQ6dmy-ici0O5-77" value="Kubernetes Cluster" style="swimlane;" parent="1" vertex="1">
          <mxGeometry x="39.62" y="320" width="200" height="180" as="geometry">
            <mxRectangle x="40" y="300" width="140" height="30" as="alternateBounds" />
          </mxGeometry>
        </mxCell>
        <mxCell id="L6B9nfpbQ6dmy-ici0O5-41" value="Container Empréstimo" style="rounded=0;whiteSpace=wrap;html=1;" parent="L6B9nfpbQ6dmy-ici0O5-77" vertex="1">
          <mxGeometry x="26" y="85" width="160" height="17.5" as="geometry" />
        </mxCell>
        <mxCell id="L6B9nfpbQ6dmy-ici0O5-48" value="Container Notificação" style="rounded=0;whiteSpace=wrap;html=1;" parent="L6B9nfpbQ6dmy-ici0O5-77" vertex="1">
          <mxGeometry x="26" y="115" width="160" height="17.5" as="geometry" />
        </mxCell>
        <mxCell id="L6B9nfpbQ6dmy-ici0O5-49" value="Container Taxa" style="rounded=0;whiteSpace=wrap;html=1;" parent="L6B9nfpbQ6dmy-ici0O5-77" vertex="1">
          <mxGeometry x="26" y="145" width="160" height="17.5" as="geometry" />
        </mxCell>
        <mxCell id="L6B9nfpbQ6dmy-ici0O5-50" value="Api Gateway" style="rounded=0;whiteSpace=wrap;html=1;" parent="L6B9nfpbQ6dmy-ici0O5-77" vertex="1">
          <mxGeometry x="26" y="37.5" width="158.5" height="20" as="geometry" />
        </mxCell>
        <mxCell id="L6B9nfpbQ6dmy-ici0O5-51" value="" style="endArrow=classic;html=1;rounded=0;exitX=0;exitY=0.75;exitDx=0;exitDy=0;entryX=0;entryY=0.5;entryDx=0;entryDy=0;" parent="L6B9nfpbQ6dmy-ici0O5-77" source="L6B9nfpbQ6dmy-ici0O5-50" target="L6B9nfpbQ6dmy-ici0O5-41" edge="1">
          <mxGeometry width="50" height="50" relative="1" as="geometry">
            <mxPoint x="270.5" y="132.5" as="sourcePoint" />
            <mxPoint x="320.5" y="82.5" as="targetPoint" />
            <Array as="points">
              <mxPoint x="10.5" y="52.5" />
              <mxPoint x="10.5" y="93.5" />
            </Array>
          </mxGeometry>
        </mxCell>
        <mxCell id="L6B9nfpbQ6dmy-ici0O5-55" value="" style="endArrow=classic;html=1;rounded=0;exitX=0;exitY=0.75;exitDx=0;exitDy=0;entryX=0;entryY=0.5;entryDx=0;entryDy=0;" parent="L6B9nfpbQ6dmy-ici0O5-77" source="L6B9nfpbQ6dmy-ici0O5-50" target="L6B9nfpbQ6dmy-ici0O5-48" edge="1">
          <mxGeometry width="50" height="50" relative="1" as="geometry">
            <mxPoint x="20.5" y="52.5" as="sourcePoint" />
            <mxPoint x="320.5" y="82.5" as="targetPoint" />
            <Array as="points">
              <mxPoint x="10.5" y="52.5" />
              <mxPoint x="10.5" y="92.5" />
              <mxPoint x="10.5" y="122.5" />
            </Array>
          </mxGeometry>
        </mxCell>
        <mxCell id="L6B9nfpbQ6dmy-ici0O5-57" value="" style="endArrow=classic;html=1;rounded=0;exitX=0;exitY=0.75;exitDx=0;exitDy=0;entryX=0;entryY=0.5;entryDx=0;entryDy=0;" parent="L6B9nfpbQ6dmy-ici0O5-77" source="L6B9nfpbQ6dmy-ici0O5-50" target="L6B9nfpbQ6dmy-ici0O5-49" edge="1">
          <mxGeometry width="50" height="50" relative="1" as="geometry">
            <mxPoint x="270.5" y="132.5" as="sourcePoint" />
            <mxPoint x="320.5" y="82.5" as="targetPoint" />
            <Array as="points">
              <mxPoint x="10.5" y="52.5" />
              <mxPoint x="10.5" y="152.5" />
            </Array>
          </mxGeometry>
        </mxCell>
        <mxCell id="L6B9nfpbQ6dmy-ici0O5-83" value="Usuário" style="swimlane;" parent="1" vertex="1">
          <mxGeometry x="309.38" y="20" width="200" height="80" as="geometry">
            <mxRectangle x="309.38" y="20" width="80" height="30" as="alternateBounds" />
          </mxGeometry>
        </mxCell>
        <mxCell id="L6B9nfpbQ6dmy-ici0O5-10" value="Cliente" style="shape=umlActor;verticalLabelPosition=bottom;verticalAlign=top;html=1;outlineConnect=0;" parent="L6B9nfpbQ6dmy-ici0O5-83" vertex="1">
          <mxGeometry x="94.5" y="30" width="16" height="20" as="geometry" />
        </mxCell>
        <mxCell id="L6B9nfpbQ6dmy-ici0O5-31" value="Gerente" style="shape=umlActor;verticalLabelPosition=bottom;verticalAlign=top;html=1;outlineConnect=0;" parent="L6B9nfpbQ6dmy-ici0O5-83" vertex="1">
          <mxGeometry x="46.5" y="30" width="16" height="20" as="geometry" />
        </mxCell>
        <mxCell id="L6B9nfpbQ6dmy-ici0O5-32" value="Caixa" style="shape=umlActor;verticalLabelPosition=bottom;verticalAlign=top;html=1;outlineConnect=0;" parent="L6B9nfpbQ6dmy-ici0O5-83" vertex="1">
          <mxGeometry x="146.5" y="30" width="16" height="20" as="geometry" />
        </mxCell>
        <mxCell id="L6B9nfpbQ6dmy-ici0O5-85" value="Sistema" style="swimlane;" parent="1" vertex="1">
          <mxGeometry x="249.38" y="130" width="320" height="70" as="geometry" />
        </mxCell>
        <mxCell id="L6B9nfpbQ6dmy-ici0O5-21" value="Terminal" style="rounded=0;whiteSpace=wrap;html=1;" parent="L6B9nfpbQ6dmy-ici0O5-85" vertex="1">
          <mxGeometry x="10" y="30" width="70" height="30" as="geometry" />
        </mxCell>
        <mxCell id="L6B9nfpbQ6dmy-ici0O5-22" value="Desktop" style="rounded=0;whiteSpace=wrap;html=1;" parent="L6B9nfpbQ6dmy-ici0O5-85" vertex="1">
          <mxGeometry x="167" y="30" width="70" height="30" as="geometry" />
        </mxCell>
        <mxCell id="L6B9nfpbQ6dmy-ici0O5-23" value="Mobile" style="rounded=0;whiteSpace=wrap;html=1;" parent="L6B9nfpbQ6dmy-ici0O5-85" vertex="1">
          <mxGeometry x="240" y="30" width="70" height="30" as="geometry" />
        </mxCell>
        <mxCell id="L6B9nfpbQ6dmy-ici0O5-30" value="Web" style="rounded=0;whiteSpace=wrap;html=1;" parent="L6B9nfpbQ6dmy-ici0O5-85" vertex="1">
          <mxGeometry x="90" y="30" width="70" height="30" as="geometry" />
        </mxCell>
        <mxCell id="L6B9nfpbQ6dmy-ici0O5-44" value="" style="endArrow=classic;html=1;rounded=0;exitX=0.5;exitY=1;exitDx=0;exitDy=0;entryX=0.5;entryY=0;entryDx=0;entryDy=0;" parent="1" source="L6B9nfpbQ6dmy-ici0O5-6" target="L6B9nfpbQ6dmy-ici0O5-77" edge="1">
          <mxGeometry width="50" height="50" relative="1" as="geometry">
            <mxPoint x="391.12" y="330" as="sourcePoint" />
            <mxPoint x="146.62" y="340" as="targetPoint" />
          </mxGeometry>
        </mxCell>
        <mxCell id="L6B9nfpbQ6dmy-ici0O5-94" value="Kubernetes Cluster" style="swimlane;" parent="1" vertex="1">
          <mxGeometry x="309" y="320" width="200" height="180" as="geometry" />
        </mxCell>
        <mxCell id="L6B9nfpbQ6dmy-ici0O5-95" value="Container Empréstimo" style="rounded=0;whiteSpace=wrap;html=1;" parent="L6B9nfpbQ6dmy-ici0O5-94" vertex="1">
          <mxGeometry x="26" y="85" width="160" height="17.5" as="geometry" />
        </mxCell>
        <mxCell id="L6B9nfpbQ6dmy-ici0O5-96" value="Container Notificação" style="rounded=0;whiteSpace=wrap;html=1;" parent="L6B9nfpbQ6dmy-ici0O5-94" vertex="1">
          <mxGeometry x="26" y="115" width="160" height="17.5" as="geometry" />
        </mxCell>
        <mxCell id="L6B9nfpbQ6dmy-ici0O5-97" value="Container Taxa" style="rounded=0;whiteSpace=wrap;html=1;" parent="L6B9nfpbQ6dmy-ici0O5-94" vertex="1">
          <mxGeometry x="26" y="145" width="160" height="17.5" as="geometry" />
        </mxCell>
        <mxCell id="L6B9nfpbQ6dmy-ici0O5-98" value="Api Gateway" style="rounded=0;whiteSpace=wrap;html=1;" parent="L6B9nfpbQ6dmy-ici0O5-94" vertex="1">
          <mxGeometry x="26" y="37.5" width="158.5" height="20" as="geometry" />
        </mxCell>
        <mxCell id="L6B9nfpbQ6dmy-ici0O5-99" value="" style="endArrow=classic;html=1;rounded=0;exitX=0;exitY=0.75;exitDx=0;exitDy=0;entryX=0;entryY=0.5;entryDx=0;entryDy=0;" parent="L6B9nfpbQ6dmy-ici0O5-94" source="L6B9nfpbQ6dmy-ici0O5-98" target="L6B9nfpbQ6dmy-ici0O5-95" edge="1">
          <mxGeometry width="50" height="50" relative="1" as="geometry">
            <mxPoint x="270.5" y="132.5" as="sourcePoint" />
            <mxPoint x="320.5" y="82.5" as="targetPoint" />
            <Array as="points">
              <mxPoint x="10.5" y="52.5" />
              <mxPoint x="10.5" y="93.5" />
            </Array>
          </mxGeometry>
        </mxCell>
        <mxCell id="L6B9nfpbQ6dmy-ici0O5-100" value="" style="endArrow=classic;html=1;rounded=0;exitX=0;exitY=0.75;exitDx=0;exitDy=0;entryX=0;entryY=0.5;entryDx=0;entryDy=0;" parent="L6B9nfpbQ6dmy-ici0O5-94" source="L6B9nfpbQ6dmy-ici0O5-98" target="L6B9nfpbQ6dmy-ici0O5-96" edge="1">
          <mxGeometry width="50" height="50" relative="1" as="geometry">
            <mxPoint x="20.5" y="52.5" as="sourcePoint" />
            <mxPoint x="320.5" y="82.5" as="targetPoint" />
            <Array as="points">
              <mxPoint x="10.5" y="52.5" />
              <mxPoint x="10.5" y="92.5" />
              <mxPoint x="10.5" y="122.5" />
            </Array>
          </mxGeometry>
        </mxCell>
        <mxCell id="L6B9nfpbQ6dmy-ici0O5-101" value="" style="endArrow=classic;html=1;rounded=0;exitX=0;exitY=0.75;exitDx=0;exitDy=0;entryX=0;entryY=0.5;entryDx=0;entryDy=0;" parent="L6B9nfpbQ6dmy-ici0O5-94" source="L6B9nfpbQ6dmy-ici0O5-98" target="L6B9nfpbQ6dmy-ici0O5-97" edge="1">
          <mxGeometry width="50" height="50" relative="1" as="geometry">
            <mxPoint x="270.5" y="132.5" as="sourcePoint" />
            <mxPoint x="320.5" y="82.5" as="targetPoint" />
            <Array as="points">
              <mxPoint x="10.5" y="52.5" />
              <mxPoint x="10.5" y="152.5" />
            </Array>
          </mxGeometry>
        </mxCell>
        <mxCell id="L6B9nfpbQ6dmy-ici0O5-102" value="Kubernetes Cluster" style="swimlane;" parent="1" vertex="1">
          <mxGeometry x="575.87" y="320" width="200" height="180" as="geometry" />
        </mxCell>
        <mxCell id="L6B9nfpbQ6dmy-ici0O5-103" value="Container Empréstimo" style="rounded=0;whiteSpace=wrap;html=1;" parent="L6B9nfpbQ6dmy-ici0O5-102" vertex="1">
          <mxGeometry x="26" y="85" width="160" height="17.5" as="geometry" />
        </mxCell>
        <mxCell id="L6B9nfpbQ6dmy-ici0O5-104" value="Container Notificação" style="rounded=0;whiteSpace=wrap;html=1;" parent="L6B9nfpbQ6dmy-ici0O5-102" vertex="1">
          <mxGeometry x="26" y="115" width="160" height="17.5" as="geometry" />
        </mxCell>
        <mxCell id="L6B9nfpbQ6dmy-ici0O5-105" value="Container Taxa" style="rounded=0;whiteSpace=wrap;html=1;" parent="L6B9nfpbQ6dmy-ici0O5-102" vertex="1">
          <mxGeometry x="26" y="145" width="160" height="17.5" as="geometry" />
        </mxCell>
        <mxCell id="L6B9nfpbQ6dmy-ici0O5-106" value="Api Gateway" style="rounded=0;whiteSpace=wrap;html=1;" parent="L6B9nfpbQ6dmy-ici0O5-102" vertex="1">
          <mxGeometry x="26" y="37.5" width="158.5" height="20" as="geometry" />
        </mxCell>
        <mxCell id="L6B9nfpbQ6dmy-ici0O5-107" value="" style="endArrow=classic;html=1;rounded=0;exitX=0;exitY=0.75;exitDx=0;exitDy=0;entryX=0;entryY=0.5;entryDx=0;entryDy=0;" parent="L6B9nfpbQ6dmy-ici0O5-102" source="L6B9nfpbQ6dmy-ici0O5-106" target="L6B9nfpbQ6dmy-ici0O5-103" edge="1">
          <mxGeometry width="50" height="50" relative="1" as="geometry">
            <mxPoint x="270.5" y="132.5" as="sourcePoint" />
            <mxPoint x="320.5" y="82.5" as="targetPoint" />
            <Array as="points">
              <mxPoint x="10.5" y="52.5" />
              <mxPoint x="10.5" y="93.5" />
            </Array>
          </mxGeometry>
        </mxCell>
        <mxCell id="L6B9nfpbQ6dmy-ici0O5-108" value="" style="endArrow=classic;html=1;rounded=0;exitX=0;exitY=0.75;exitDx=0;exitDy=0;entryX=0;entryY=0.5;entryDx=0;entryDy=0;" parent="L6B9nfpbQ6dmy-ici0O5-102" source="L6B9nfpbQ6dmy-ici0O5-106" target="L6B9nfpbQ6dmy-ici0O5-104" edge="1">
          <mxGeometry width="50" height="50" relative="1" as="geometry">
            <mxPoint x="20.5" y="52.5" as="sourcePoint" />
            <mxPoint x="320.5" y="82.5" as="targetPoint" />
            <Array as="points">
              <mxPoint x="10.5" y="52.5" />
              <mxPoint x="10.5" y="92.5" />
              <mxPoint x="10.5" y="122.5" />
            </Array>
          </mxGeometry>
        </mxCell>
        <mxCell id="L6B9nfpbQ6dmy-ici0O5-109" value="" style="endArrow=classic;html=1;rounded=0;exitX=0;exitY=0.75;exitDx=0;exitDy=0;entryX=0;entryY=0.5;entryDx=0;entryDy=0;" parent="L6B9nfpbQ6dmy-ici0O5-102" source="L6B9nfpbQ6dmy-ici0O5-106" target="L6B9nfpbQ6dmy-ici0O5-105" edge="1">
          <mxGeometry width="50" height="50" relative="1" as="geometry">
            <mxPoint x="270.5" y="132.5" as="sourcePoint" />
            <mxPoint x="320.5" y="82.5" as="targetPoint" />
            <Array as="points">
              <mxPoint x="10.5" y="52.5" />
              <mxPoint x="10.5" y="152.5" />
            </Array>
          </mxGeometry>
        </mxCell>
        <mxCell id="L6B9nfpbQ6dmy-ici0O5-45" value="" style="endArrow=classic;html=1;rounded=0;exitX=0.5;exitY=1;exitDx=0;exitDy=0;entryX=0.544;entryY=-0.01;entryDx=0;entryDy=0;entryPerimeter=0;" parent="1" source="L6B9nfpbQ6dmy-ici0O5-6" target="L6B9nfpbQ6dmy-ici0O5-102" edge="1">
          <mxGeometry width="50" height="50" relative="1" as="geometry">
            <mxPoint x="391.12" y="330" as="sourcePoint" />
            <mxPoint x="681.62" y="340" as="targetPoint" />
          </mxGeometry>
        </mxCell>
        <mxCell id="L6B9nfpbQ6dmy-ici0O5-111" value="&lt;b&gt;&lt;font style=&quot;font-size: 14px;&quot;&gt;VPC&lt;/font&gt;&lt;/b&gt;" style="text;html=1;align=center;verticalAlign=middle;whiteSpace=wrap;rounded=0;" parent="1" vertex="1">
          <mxGeometry x="9.62" y="510" width="60" height="30" as="geometry" />
        </mxCell>
        <mxCell id="L6B9nfpbQ6dmy-ici0O5-235" value="Visão Taxas" style="swimlane;whiteSpace=wrap;html=1;" parent="1" vertex="1">
          <mxGeometry x="2194" y="45" width="506" height="1335" as="geometry">
            <mxRectangle x="2194" y="45" width="100" height="30" as="alternateBounds" />
          </mxGeometry>
        </mxCell>
        <mxCell id="L6B9nfpbQ6dmy-ici0O5-209" value="&lt;span style=&quot;font-weight: 400;&quot;&gt;Consultar taxa de câmbio&lt;/span&gt;" style="swimlane;whiteSpace=wrap;html=1;" parent="L6B9nfpbQ6dmy-ici0O5-235" vertex="1">
          <mxGeometry x="18" y="855" width="470" height="461.5" as="geometry">
            <mxRectangle x="20" y="835" width="180" height="30" as="alternateBounds" />
          </mxGeometry>
        </mxCell>
        <mxCell id="L6B9nfpbQ6dmy-ici0O5-210" value="Consultar taxa de câmbio" style="rounded=0;whiteSpace=wrap;html=1;" parent="L6B9nfpbQ6dmy-ici0O5-209" vertex="1">
          <mxGeometry x="25" y="142.5" width="90" height="40" as="geometry" />
        </mxCell>
        <mxCell id="L6B9nfpbQ6dmy-ici0O5-211" value="É moeda estrangeira" style="rhombus;whiteSpace=wrap;html=1;" parent="L6B9nfpbQ6dmy-ici0O5-209" vertex="1">
          <mxGeometry x="70" y="42.5" width="80" height="50" as="geometry" />
        </mxCell>
        <mxCell id="L6B9nfpbQ6dmy-ici0O5-212" value="" style="endArrow=classic;html=1;rounded=0;exitX=0.5;exitY=1;exitDx=0;exitDy=0;entryX=0.5;entryY=0;entryDx=0;entryDy=0;" parent="L6B9nfpbQ6dmy-ici0O5-209" source="L6B9nfpbQ6dmy-ici0O5-211" target="L6B9nfpbQ6dmy-ici0O5-210" edge="1">
          <mxGeometry width="50" height="50" relative="1" as="geometry">
            <mxPoint x="70" y="122" as="sourcePoint" />
            <mxPoint x="70" y="142.5" as="targetPoint" />
          </mxGeometry>
        </mxCell>
        <mxCell id="L6B9nfpbQ6dmy-ici0O5-213" value="Sim" style="edgeLabel;html=1;align=center;verticalAlign=middle;resizable=0;points=[];" parent="L6B9nfpbQ6dmy-ici0O5-212" vertex="1" connectable="0">
          <mxGeometry x="-0.3333" y="-1" relative="1" as="geometry">
            <mxPoint as="offset" />
          </mxGeometry>
        </mxCell>
        <mxCell id="L6B9nfpbQ6dmy-ici0O5-214" value="" style="endArrow=classic;html=1;rounded=0;exitX=1;exitY=0.5;exitDx=0;exitDy=0;entryX=0;entryY=0.5;entryDx=0;entryDy=0;" parent="L6B9nfpbQ6dmy-ici0O5-209" source="L6B9nfpbQ6dmy-ici0O5-210" target="L6B9nfpbQ6dmy-ici0O5-215" edge="1">
          <mxGeometry width="50" height="50" relative="1" as="geometry">
            <mxPoint x="111" y="232.5" as="sourcePoint" />
            <mxPoint x="100" y="222.5" as="targetPoint" />
          </mxGeometry>
        </mxCell>
        <mxCell id="L6B9nfpbQ6dmy-ici0O5-215" value="Tem&amp;nbsp;&lt;div&gt;no cache&lt;/div&gt;" style="rhombus;whiteSpace=wrap;html=1;" parent="L6B9nfpbQ6dmy-ici0O5-209" vertex="1">
          <mxGeometry x="150" y="137.5" width="80" height="50" as="geometry" />
        </mxCell>
        <mxCell id="L6B9nfpbQ6dmy-ici0O5-216" value="" style="endArrow=classic;html=1;rounded=0;exitX=1;exitY=0.5;exitDx=0;exitDy=0;entryX=0;entryY=0.5;entryDx=0;entryDy=0;" parent="L6B9nfpbQ6dmy-ici0O5-209" source="L6B9nfpbQ6dmy-ici0O5-211" target="L6B9nfpbQ6dmy-ici0O5-246" edge="1">
          <mxGeometry width="50" height="50" relative="1" as="geometry">
            <mxPoint x="170" y="92.5" as="sourcePoint" />
            <mxPoint x="220" y="67.5" as="targetPoint" />
          </mxGeometry>
        </mxCell>
        <mxCell id="L6B9nfpbQ6dmy-ici0O5-217" value="Não" style="edgeLabel;html=1;align=center;verticalAlign=middle;resizable=0;points=[];" parent="L6B9nfpbQ6dmy-ici0O5-216" vertex="1" connectable="0">
          <mxGeometry x="-0.3333" y="-1" relative="1" as="geometry">
            <mxPoint x="7" y="-1" as="offset" />
          </mxGeometry>
        </mxCell>
        <mxCell id="L6B9nfpbQ6dmy-ici0O5-219" value="" style="endArrow=classic;html=1;rounded=0;exitX=0.5;exitY=1;exitDx=0;exitDy=0;entryX=0.5;entryY=0;entryDx=0;entryDy=0;entryPerimeter=0;" parent="L6B9nfpbQ6dmy-ici0O5-209" source="L6B9nfpbQ6dmy-ici0O5-215" target="mGnls-kepnsf9FTQ0FWG-15" edge="1">
          <mxGeometry width="50" height="50" relative="1" as="geometry">
            <mxPoint x="130" y="272.5" as="sourcePoint" />
            <mxPoint x="190" y="240" as="targetPoint" />
          </mxGeometry>
        </mxCell>
        <mxCell id="L6B9nfpbQ6dmy-ici0O5-220" value="Sim" style="edgeLabel;html=1;align=center;verticalAlign=middle;resizable=0;points=[];" parent="L6B9nfpbQ6dmy-ici0O5-219" vertex="1" connectable="0">
          <mxGeometry x="-0.3333" y="-1" relative="1" as="geometry">
            <mxPoint as="offset" />
          </mxGeometry>
        </mxCell>
        <mxCell id="L6B9nfpbQ6dmy-ici0O5-221" value="" style="endArrow=classic;html=1;rounded=0;exitX=1;exitY=0.5;exitDx=0;exitDy=0;entryX=0;entryY=0.5;entryDx=0;entryDy=0;" parent="L6B9nfpbQ6dmy-ici0O5-209" source="L6B9nfpbQ6dmy-ici0O5-215" target="L6B9nfpbQ6dmy-ici0O5-223" edge="1">
          <mxGeometry width="50" height="50" relative="1" as="geometry">
            <mxPoint x="130" y="263" as="sourcePoint" />
            <mxPoint x="180" y="247.5" as="targetPoint" />
          </mxGeometry>
        </mxCell>
        <mxCell id="L6B9nfpbQ6dmy-ici0O5-222" value="Não" style="edgeLabel;html=1;align=center;verticalAlign=middle;resizable=0;points=[];" parent="L6B9nfpbQ6dmy-ici0O5-221" vertex="1" connectable="0">
          <mxGeometry x="-0.3333" y="-1" relative="1" as="geometry">
            <mxPoint as="offset" />
          </mxGeometry>
        </mxCell>
        <mxCell id="L6B9nfpbQ6dmy-ici0O5-223" value="Consultar taxa de câmbio na API Banco do Brasil / EBANX" style="rounded=0;whiteSpace=wrap;html=1;" parent="L6B9nfpbQ6dmy-ici0O5-209" vertex="1">
          <mxGeometry x="294" y="137.5" width="170" height="50" as="geometry" />
        </mxCell>
        <mxCell id="L6B9nfpbQ6dmy-ici0O5-234" value="" style="edgeStyle=orthogonalEdgeStyle;rounded=0;orthogonalLoop=1;jettySize=auto;html=1;" parent="L6B9nfpbQ6dmy-ici0O5-209" source="L6B9nfpbQ6dmy-ici0O5-233" target="L6B9nfpbQ6dmy-ici0O5-211" edge="1">
          <mxGeometry relative="1" as="geometry" />
        </mxCell>
        <mxCell id="L6B9nfpbQ6dmy-ici0O5-233" value="" style="ellipse;whiteSpace=wrap;html=1;aspect=fixed;" parent="L6B9nfpbQ6dmy-ici0O5-209" vertex="1">
          <mxGeometry x="10" y="52.5" width="30" height="30" as="geometry" />
        </mxCell>
        <mxCell id="L6B9nfpbQ6dmy-ici0O5-246" value="fim" style="ellipse;whiteSpace=wrap;html=1;aspect=fixed;" parent="L6B9nfpbQ6dmy-ici0O5-209" vertex="1">
          <mxGeometry x="220" y="52.5" width="30" height="30" as="geometry" />
        </mxCell>
        <mxCell id="mGnls-kepnsf9FTQ0FWG-15" value="Cache" style="shape=cylinder3;whiteSpace=wrap;html=1;boundedLbl=1;backgroundOutline=1;size=15;" vertex="1" parent="L6B9nfpbQ6dmy-ici0O5-209">
          <mxGeometry x="164.5" y="277.5" width="51" height="70" as="geometry" />
        </mxCell>
        <mxCell id="mGnls-kepnsf9FTQ0FWG-17" value="Taxas" style="shape=cylinder3;whiteSpace=wrap;html=1;boundedLbl=1;backgroundOutline=1;size=15;" vertex="1" parent="L6B9nfpbQ6dmy-ici0O5-209">
          <mxGeometry x="353.5" y="370" width="51" height="70" as="geometry" />
        </mxCell>
        <mxCell id="mGnls-kepnsf9FTQ0FWG-18" value="fim" style="ellipse;whiteSpace=wrap;html=1;aspect=fixed;" vertex="1" parent="L6B9nfpbQ6dmy-ici0O5-209">
          <mxGeometry x="239" y="229" width="30" height="30" as="geometry" />
        </mxCell>
        <mxCell id="mGnls-kepnsf9FTQ0FWG-19" value="" style="edgeStyle=orthogonalEdgeStyle;rounded=0;orthogonalLoop=1;jettySize=auto;html=1;exitX=0.5;exitY=1;exitDx=0;exitDy=0;" edge="1" parent="L6B9nfpbQ6dmy-ici0O5-209" source="mGnls-kepnsf9FTQ0FWG-22" target="mGnls-kepnsf9FTQ0FWG-24">
          <mxGeometry relative="1" as="geometry">
            <mxPoint x="458" y="280" as="targetPoint" />
          </mxGeometry>
        </mxCell>
        <mxCell id="mGnls-kepnsf9FTQ0FWG-20" value="Sim" style="edgeLabel;html=1;align=center;verticalAlign=middle;resizable=0;points=[];" vertex="1" connectable="0" parent="mGnls-kepnsf9FTQ0FWG-19">
          <mxGeometry x="-0.186" y="-1" relative="1" as="geometry">
            <mxPoint as="offset" />
          </mxGeometry>
        </mxCell>
        <mxCell id="mGnls-kepnsf9FTQ0FWG-21" value="Não" style="edgeStyle=orthogonalEdgeStyle;rounded=0;orthogonalLoop=1;jettySize=auto;html=1;" edge="1" parent="L6B9nfpbQ6dmy-ici0O5-209" source="mGnls-kepnsf9FTQ0FWG-22" target="mGnls-kepnsf9FTQ0FWG-18">
          <mxGeometry relative="1" as="geometry" />
        </mxCell>
        <mxCell id="mGnls-kepnsf9FTQ0FWG-22" value="Encontrou taxa" style="rhombus;whiteSpace=wrap;html=1;" vertex="1" parent="L6B9nfpbQ6dmy-ici0O5-209">
          <mxGeometry x="339" y="219" width="80" height="50" as="geometry" />
        </mxCell>
        <mxCell id="mGnls-kepnsf9FTQ0FWG-23" value="" style="edgeStyle=orthogonalEdgeStyle;rounded=0;orthogonalLoop=1;jettySize=auto;html=1;" edge="1" parent="L6B9nfpbQ6dmy-ici0O5-209" source="mGnls-kepnsf9FTQ0FWG-24" target="mGnls-kepnsf9FTQ0FWG-17">
          <mxGeometry relative="1" as="geometry" />
        </mxCell>
        <mxCell id="mGnls-kepnsf9FTQ0FWG-24" value="Registrar taxa" style="rounded=0;whiteSpace=wrap;html=1;" vertex="1" parent="L6B9nfpbQ6dmy-ici0O5-209">
          <mxGeometry x="330" y="310" width="98" height="37.5" as="geometry" />
        </mxCell>
        <mxCell id="mGnls-kepnsf9FTQ0FWG-25" value="" style="endArrow=classic;html=1;rounded=0;entryX=1;entryY=0;entryDx=0;entryDy=52.5;entryPerimeter=0;exitX=0;exitY=0.5;exitDx=0;exitDy=0;" edge="1" parent="L6B9nfpbQ6dmy-ici0O5-209" source="mGnls-kepnsf9FTQ0FWG-24" target="mGnls-kepnsf9FTQ0FWG-15">
          <mxGeometry width="50" height="50" relative="1" as="geometry">
            <mxPoint x="139" y="281.5" as="sourcePoint" />
            <mxPoint x="189" y="231.5" as="targetPoint" />
            <Array as="points">
              <mxPoint x="288" y="328" />
            </Array>
          </mxGeometry>
        </mxCell>
        <mxCell id="mGnls-kepnsf9FTQ0FWG-26" value="" style="endArrow=classic;html=1;rounded=0;exitX=1;exitY=0;exitDx=0;exitDy=15;exitPerimeter=0;entryX=0;entryY=1;entryDx=0;entryDy=0;" edge="1" parent="L6B9nfpbQ6dmy-ici0O5-209" source="mGnls-kepnsf9FTQ0FWG-15" target="mGnls-kepnsf9FTQ0FWG-18">
          <mxGeometry width="50" height="50" relative="1" as="geometry">
            <mxPoint x="139" y="281.5" as="sourcePoint" />
            <mxPoint x="189" y="231.5" as="targetPoint" />
          </mxGeometry>
        </mxCell>
        <mxCell id="mGnls-kepnsf9FTQ0FWG-27" value="" style="endArrow=classic;html=1;rounded=0;entryX=0.5;entryY=0;entryDx=0;entryDy=0;exitX=0.5;exitY=1;exitDx=0;exitDy=0;" edge="1" parent="L6B9nfpbQ6dmy-ici0O5-209" source="L6B9nfpbQ6dmy-ici0O5-223" target="mGnls-kepnsf9FTQ0FWG-22">
          <mxGeometry width="50" height="50" relative="1" as="geometry">
            <mxPoint x="178" y="170" as="sourcePoint" />
            <mxPoint x="228" y="120" as="targetPoint" />
          </mxGeometry>
        </mxCell>
        <mxCell id="L6B9nfpbQ6dmy-ici0O5-123" value="Container Taxa" style="swimlane;whiteSpace=wrap;html=1;startSize=23;" parent="L6B9nfpbQ6dmy-ici0O5-235" vertex="1">
          <mxGeometry x="86" y="50" width="310" height="271" as="geometry" />
        </mxCell>
        <mxCell id="L6B9nfpbQ6dmy-ici0O5-176" value="Microsserviço Taxas" style="swimlane;whiteSpace=wrap;html=1;" parent="L6B9nfpbQ6dmy-ici0O5-123" vertex="1">
          <mxGeometry x="10" y="31" width="290" height="119" as="geometry" />
        </mxCell>
        <mxCell id="L6B9nfpbQ6dmy-ici0O5-175" value="API GET&amp;lt;domain&amp;gt;/api/v1/taxas/{tipo}?queystring" style="rounded=0;whiteSpace=wrap;html=1;" parent="L6B9nfpbQ6dmy-ici0O5-176" vertex="1">
          <mxGeometry x="10" y="30" width="270" height="20" as="geometry" />
        </mxCell>
        <mxCell id="L6B9nfpbQ6dmy-ici0O5-180" value="Consultar taxa de juros" style="rounded=0;whiteSpace=wrap;html=1;" parent="L6B9nfpbQ6dmy-ici0O5-176" vertex="1">
          <mxGeometry x="10" y="60" width="110" height="40" as="geometry" />
        </mxCell>
        <mxCell id="L6B9nfpbQ6dmy-ici0O5-189" value="Consultar taxa de câmbio" style="rounded=0;whiteSpace=wrap;html=1;" parent="L6B9nfpbQ6dmy-ici0O5-176" vertex="1">
          <mxGeometry x="140" y="60" width="120" height="40" as="geometry" />
        </mxCell>
        <mxCell id="L6B9nfpbQ6dmy-ici0O5-37" value="Taxas" style="shape=cylinder3;whiteSpace=wrap;html=1;boundedLbl=1;backgroundOutline=1;size=15;" parent="L6B9nfpbQ6dmy-ici0O5-123" vertex="1">
          <mxGeometry x="60" y="171" width="60" height="80" as="geometry" />
        </mxCell>
        <mxCell id="L6B9nfpbQ6dmy-ici0O5-40" value="Cache" style="shape=cylinder3;whiteSpace=wrap;html=1;boundedLbl=1;backgroundOutline=1;size=15;" parent="L6B9nfpbQ6dmy-ici0O5-123" vertex="1">
          <mxGeometry x="180" y="171" width="60" height="80" as="geometry" />
        </mxCell>
        <mxCell id="L6B9nfpbQ6dmy-ici0O5-193" value="&lt;span style=&quot;font-weight: 400;&quot;&gt;Consultar taxa de juros&lt;/span&gt;" style="swimlane;whiteSpace=wrap;html=1;" parent="L6B9nfpbQ6dmy-ici0O5-235" vertex="1">
          <mxGeometry x="20" y="415" width="460" height="405" as="geometry">
            <mxRectangle x="20" y="465" width="180" height="30" as="alternateBounds" />
          </mxGeometry>
        </mxCell>
        <mxCell id="L6B9nfpbQ6dmy-ici0O5-239" value="" style="edgeStyle=orthogonalEdgeStyle;rounded=0;orthogonalLoop=1;jettySize=auto;html=1;" parent="L6B9nfpbQ6dmy-ici0O5-193" source="L6B9nfpbQ6dmy-ici0O5-178" target="L6B9nfpbQ6dmy-ici0O5-192" edge="1">
          <mxGeometry relative="1" as="geometry" />
        </mxCell>
        <mxCell id="L6B9nfpbQ6dmy-ici0O5-178" value="Consultar taxa de juros" style="rounded=0;whiteSpace=wrap;html=1;" parent="L6B9nfpbQ6dmy-ici0O5-193" vertex="1">
          <mxGeometry x="70" y="45" width="90" height="40" as="geometry" />
        </mxCell>
        <mxCell id="L6B9nfpbQ6dmy-ici0O5-192" value="Tem&amp;nbsp;&lt;div&gt;no cache&lt;/div&gt;" style="rhombus;whiteSpace=wrap;html=1;" parent="L6B9nfpbQ6dmy-ici0O5-193" vertex="1">
          <mxGeometry x="75" y="120" width="80" height="50" as="geometry" />
        </mxCell>
        <mxCell id="L6B9nfpbQ6dmy-ici0O5-194" value="Cache" style="shape=cylinder3;whiteSpace=wrap;html=1;boundedLbl=1;backgroundOutline=1;size=15;" parent="L6B9nfpbQ6dmy-ici0O5-193" vertex="1">
          <mxGeometry x="90" y="230" width="55" height="70" as="geometry" />
        </mxCell>
        <mxCell id="L6B9nfpbQ6dmy-ici0O5-195" value="" style="endArrow=classic;html=1;rounded=0;exitX=0.5;exitY=1;exitDx=0;exitDy=0;" parent="L6B9nfpbQ6dmy-ici0O5-193" source="L6B9nfpbQ6dmy-ici0O5-192" target="L6B9nfpbQ6dmy-ici0O5-194" edge="1">
          <mxGeometry width="50" height="50" relative="1" as="geometry">
            <mxPoint x="58" y="255" as="sourcePoint" />
            <mxPoint x="68" y="305" as="targetPoint" />
          </mxGeometry>
        </mxCell>
        <mxCell id="L6B9nfpbQ6dmy-ici0O5-196" value="Sim" style="edgeLabel;html=1;align=center;verticalAlign=middle;resizable=0;points=[];" parent="L6B9nfpbQ6dmy-ici0O5-195" vertex="1" connectable="0">
          <mxGeometry x="-0.3333" y="-1" relative="1" as="geometry">
            <mxPoint as="offset" />
          </mxGeometry>
        </mxCell>
        <mxCell id="L6B9nfpbQ6dmy-ici0O5-197" value="" style="endArrow=classic;html=1;rounded=0;exitX=1;exitY=0.5;exitDx=0;exitDy=0;entryX=0;entryY=0.5;entryDx=0;entryDy=0;" parent="L6B9nfpbQ6dmy-ici0O5-193" source="L6B9nfpbQ6dmy-ici0O5-192" target="L6B9nfpbQ6dmy-ici0O5-199" edge="1">
          <mxGeometry width="50" height="50" relative="1" as="geometry">
            <mxPoint x="58" y="245.5" as="sourcePoint" />
            <mxPoint x="108" y="230" as="targetPoint" />
          </mxGeometry>
        </mxCell>
        <mxCell id="L6B9nfpbQ6dmy-ici0O5-198" value="Não" style="edgeLabel;html=1;align=center;verticalAlign=middle;resizable=0;points=[];" parent="L6B9nfpbQ6dmy-ici0O5-197" vertex="1" connectable="0">
          <mxGeometry x="-0.3333" y="-1" relative="1" as="geometry">
            <mxPoint as="offset" />
          </mxGeometry>
        </mxCell>
        <mxCell id="L6B9nfpbQ6dmy-ici0O5-199" value="Consultar taxa de juros na base de dados" style="rounded=0;whiteSpace=wrap;html=1;" parent="L6B9nfpbQ6dmy-ici0O5-193" vertex="1">
          <mxGeometry x="236" y="120" width="138" height="50" as="geometry" />
        </mxCell>
        <mxCell id="L6B9nfpbQ6dmy-ici0O5-200" value="Taxas" style="shape=cylinder3;whiteSpace=wrap;html=1;boundedLbl=1;backgroundOutline=1;size=15;" parent="L6B9nfpbQ6dmy-ici0O5-193" vertex="1">
          <mxGeometry x="374" y="310" width="51" height="70" as="geometry" />
        </mxCell>
        <mxCell id="L6B9nfpbQ6dmy-ici0O5-238" value="" style="edgeStyle=orthogonalEdgeStyle;rounded=0;orthogonalLoop=1;jettySize=auto;html=1;" parent="L6B9nfpbQ6dmy-ici0O5-193" source="L6B9nfpbQ6dmy-ici0O5-231" target="L6B9nfpbQ6dmy-ici0O5-178" edge="1">
          <mxGeometry relative="1" as="geometry" />
        </mxCell>
        <mxCell id="L6B9nfpbQ6dmy-ici0O5-231" value="" style="ellipse;whiteSpace=wrap;html=1;aspect=fixed;" parent="L6B9nfpbQ6dmy-ici0O5-193" vertex="1">
          <mxGeometry x="10" y="48.75" width="30" height="30" as="geometry" />
        </mxCell>
        <mxCell id="L6B9nfpbQ6dmy-ici0O5-244" value="fim" style="ellipse;whiteSpace=wrap;html=1;aspect=fixed;" parent="L6B9nfpbQ6dmy-ici0O5-193" vertex="1">
          <mxGeometry x="176" y="207.5" width="30" height="30" as="geometry" />
        </mxCell>
        <mxCell id="mGnls-kepnsf9FTQ0FWG-4" value="" style="edgeStyle=orthogonalEdgeStyle;rounded=0;orthogonalLoop=1;jettySize=auto;html=1;entryX=0.5;entryY=0;entryDx=0;entryDy=0;" edge="1" parent="L6B9nfpbQ6dmy-ici0O5-193" source="mGnls-kepnsf9FTQ0FWG-1" target="mGnls-kepnsf9FTQ0FWG-5">
          <mxGeometry relative="1" as="geometry">
            <mxPoint x="406" y="223" as="targetPoint" />
          </mxGeometry>
        </mxCell>
        <mxCell id="mGnls-kepnsf9FTQ0FWG-7" value="Sim" style="edgeLabel;html=1;align=center;verticalAlign=middle;resizable=0;points=[];" vertex="1" connectable="0" parent="mGnls-kepnsf9FTQ0FWG-4">
          <mxGeometry x="-0.186" y="-1" relative="1" as="geometry">
            <mxPoint as="offset" />
          </mxGeometry>
        </mxCell>
        <mxCell id="mGnls-kepnsf9FTQ0FWG-13" value="Não" style="edgeStyle=orthogonalEdgeStyle;rounded=0;orthogonalLoop=1;jettySize=auto;html=1;" edge="1" parent="L6B9nfpbQ6dmy-ici0O5-193" source="mGnls-kepnsf9FTQ0FWG-1" target="L6B9nfpbQ6dmy-ici0O5-244">
          <mxGeometry relative="1" as="geometry" />
        </mxCell>
        <mxCell id="mGnls-kepnsf9FTQ0FWG-1" value="Encontrou taxa" style="rhombus;whiteSpace=wrap;html=1;" vertex="1" parent="L6B9nfpbQ6dmy-ici0O5-193">
          <mxGeometry x="265" y="197.5" width="80" height="50" as="geometry" />
        </mxCell>
        <mxCell id="mGnls-kepnsf9FTQ0FWG-2" value="" style="endArrow=classic;html=1;rounded=0;exitX=0.5;exitY=1;exitDx=0;exitDy=0;entryX=0.5;entryY=0;entryDx=0;entryDy=0;" edge="1" parent="L6B9nfpbQ6dmy-ici0O5-193" source="L6B9nfpbQ6dmy-ici0O5-199" target="mGnls-kepnsf9FTQ0FWG-1">
          <mxGeometry width="50" height="50" relative="1" as="geometry">
            <mxPoint x="326" y="350" as="sourcePoint" />
            <mxPoint x="376" y="300" as="targetPoint" />
          </mxGeometry>
        </mxCell>
        <mxCell id="mGnls-kepnsf9FTQ0FWG-8" value="" style="edgeStyle=orthogonalEdgeStyle;rounded=0;orthogonalLoop=1;jettySize=auto;html=1;" edge="1" parent="L6B9nfpbQ6dmy-ici0O5-193" source="mGnls-kepnsf9FTQ0FWG-5" target="L6B9nfpbQ6dmy-ici0O5-200">
          <mxGeometry relative="1" as="geometry" />
        </mxCell>
        <mxCell id="mGnls-kepnsf9FTQ0FWG-5" value="Registrar taxa" style="rounded=0;whiteSpace=wrap;html=1;" vertex="1" parent="L6B9nfpbQ6dmy-ici0O5-193">
          <mxGeometry x="350" y="250" width="98" height="37.5" as="geometry" />
        </mxCell>
        <mxCell id="mGnls-kepnsf9FTQ0FWG-9" value="" style="endArrow=classic;html=1;rounded=0;entryX=1;entryY=1;entryDx=0;entryDy=-15;entryPerimeter=0;exitX=0;exitY=0.75;exitDx=0;exitDy=0;" edge="1" parent="L6B9nfpbQ6dmy-ici0O5-193" source="mGnls-kepnsf9FTQ0FWG-5" target="L6B9nfpbQ6dmy-ici0O5-194">
          <mxGeometry width="50" height="50" relative="1" as="geometry">
            <mxPoint x="126" y="210" as="sourcePoint" />
            <mxPoint x="176" y="160" as="targetPoint" />
            <Array as="points" />
          </mxGeometry>
        </mxCell>
        <mxCell id="mGnls-kepnsf9FTQ0FWG-14" value="" style="endArrow=classic;html=1;rounded=0;exitX=1;exitY=0;exitDx=0;exitDy=15;exitPerimeter=0;entryX=0;entryY=0.5;entryDx=0;entryDy=0;" edge="1" parent="L6B9nfpbQ6dmy-ici0O5-193" source="L6B9nfpbQ6dmy-ici0O5-194" target="L6B9nfpbQ6dmy-ici0O5-244">
          <mxGeometry width="50" height="50" relative="1" as="geometry">
            <mxPoint x="126" y="210" as="sourcePoint" />
            <mxPoint x="176" y="160" as="targetPoint" />
          </mxGeometry>
        </mxCell>
        <mxCell id="L6B9nfpbQ6dmy-ici0O5-237" value="PathParameter &quot;tipo&quot; representa se a taxa é anual, mensal, etc&lt;div&gt;Na querystring da URL podemos passar a idade e outros parâmetros condicionais&lt;/div&gt;" style="text;html=1;align=left;verticalAlign=middle;whiteSpace=wrap;rounded=0;" parent="L6B9nfpbQ6dmy-ici0O5-235" vertex="1">
          <mxGeometry x="86" y="345" width="310" height="30" as="geometry" />
        </mxCell>
        <mxCell id="L6B9nfpbQ6dmy-ici0O5-236" value="Visão Notificações" style="swimlane;whiteSpace=wrap;html=1;" parent="1" vertex="1">
          <mxGeometry x="1540" y="42.5" width="510" height="495" as="geometry">
            <mxRectangle x="1540" y="42.5" width="140" height="30" as="alternateBounds" />
          </mxGeometry>
        </mxCell>
        <mxCell id="L6B9nfpbQ6dmy-ici0O5-116" value="Container Notificação" style="swimlane;whiteSpace=wrap;html=1;startSize=23;" parent="L6B9nfpbQ6dmy-ici0O5-236" vertex="1">
          <mxGeometry x="20" y="40" width="470" height="160" as="geometry" />
        </mxCell>
        <mxCell id="L6B9nfpbQ6dmy-ici0O5-162" value="Microsserviço Notificações" style="swimlane;whiteSpace=wrap;html=1;startSize=23;" parent="L6B9nfpbQ6dmy-ici0O5-116" vertex="1">
          <mxGeometry x="15" y="35" width="325" height="105" as="geometry" />
        </mxCell>
        <mxCell id="L6B9nfpbQ6dmy-ici0O5-164" value="Mensageria&amp;nbsp;&lt;div&gt;&lt;span style=&quot;background-color: initial;&quot;&gt;Consumer Notificação&lt;/span&gt;&lt;/div&gt;" style="rounded=0;whiteSpace=wrap;html=1;" parent="L6B9nfpbQ6dmy-ici0O5-162" vertex="1">
          <mxGeometry x="12.5" y="60" width="140" height="30" as="geometry" />
        </mxCell>
        <mxCell id="L6B9nfpbQ6dmy-ici0O5-168" value="API GET&amp;lt;domain&amp;gt;/api/v1/notificacoes/emprestimos/{id}" style="rounded=0;whiteSpace=wrap;html=1;" parent="L6B9nfpbQ6dmy-ici0O5-162" vertex="1">
          <mxGeometry x="12.5" y="30" width="300" height="20" as="geometry" />
        </mxCell>
        <mxCell id="L6B9nfpbQ6dmy-ici0O5-39" value="&lt;font style=&quot;font-size: 10px;&quot;&gt;Notificações&lt;/font&gt;" style="shape=cylinder3;whiteSpace=wrap;html=1;boundedLbl=1;backgroundOutline=1;size=15;" parent="L6B9nfpbQ6dmy-ici0O5-116" vertex="1">
          <mxGeometry x="376" y="65" width="55.5" height="70" as="geometry" />
        </mxCell>
        <mxCell id="L6B9nfpbQ6dmy-ici0O5-247" value="&lt;span style=&quot;font-weight: 400;&quot;&gt;Mensageria&amp;nbsp;&lt;/span&gt;&lt;span style=&quot;background-color: initial; font-weight: 400;&quot;&gt;Consumer Notificação&lt;/span&gt;" style="swimlane;whiteSpace=wrap;html=1;" parent="L6B9nfpbQ6dmy-ici0O5-236" vertex="1">
          <mxGeometry x="20" y="245" width="380" height="240" as="geometry" />
        </mxCell>
        <mxCell id="L6B9nfpbQ6dmy-ici0O5-250" value="" style="edgeStyle=orthogonalEdgeStyle;rounded=0;orthogonalLoop=1;jettySize=auto;html=1;entryX=0;entryY=0.5;entryDx=0;entryDy=0;" parent="L6B9nfpbQ6dmy-ici0O5-247" source="L6B9nfpbQ6dmy-ici0O5-249" target="L6B9nfpbQ6dmy-ici0O5-251" edge="1">
          <mxGeometry relative="1" as="geometry">
            <mxPoint x="70" y="70.04999999999995" as="targetPoint" />
          </mxGeometry>
        </mxCell>
        <mxCell id="L6B9nfpbQ6dmy-ici0O5-249" value="" style="ellipse;whiteSpace=wrap;html=1;aspect=fixed;" parent="L6B9nfpbQ6dmy-ici0O5-247" vertex="1">
          <mxGeometry x="15" y="55" width="30" height="30" as="geometry" />
        </mxCell>
        <mxCell id="L6B9nfpbQ6dmy-ici0O5-254" value="sim" style="edgeStyle=orthogonalEdgeStyle;rounded=0;orthogonalLoop=1;jettySize=auto;html=1;" parent="L6B9nfpbQ6dmy-ici0O5-247" source="L6B9nfpbQ6dmy-ici0O5-251" target="L6B9nfpbQ6dmy-ici0O5-253" edge="1">
          <mxGeometry relative="1" as="geometry" />
        </mxCell>
        <mxCell id="L6B9nfpbQ6dmy-ici0O5-251" value="Tem mensagem no tópico" style="rhombus;whiteSpace=wrap;html=1;" parent="L6B9nfpbQ6dmy-ici0O5-247" vertex="1">
          <mxGeometry x="80" y="40" width="80" height="60" as="geometry" />
        </mxCell>
        <mxCell id="L6B9nfpbQ6dmy-ici0O5-252" value="não, aguarda 1seg" style="endArrow=classic;html=1;rounded=0;exitX=0.5;exitY=1;exitDx=0;exitDy=0;entryX=0.5;entryY=1;entryDx=0;entryDy=0;" parent="L6B9nfpbQ6dmy-ici0O5-247" source="L6B9nfpbQ6dmy-ici0O5-251" target="L6B9nfpbQ6dmy-ici0O5-249" edge="1">
          <mxGeometry x="-0.5152" width="50" height="50" relative="1" as="geometry">
            <mxPoint x="220" y="20" as="sourcePoint" />
            <mxPoint x="270" y="-30" as="targetPoint" />
            <Array as="points">
              <mxPoint x="120" y="130" />
              <mxPoint x="30" y="130" />
            </Array>
            <mxPoint as="offset" />
          </mxGeometry>
        </mxCell>
        <mxCell id="L6B9nfpbQ6dmy-ici0O5-253" value="Disparar email com proposta ou outro aviso" style="rounded=0;whiteSpace=wrap;html=1;" parent="L6B9nfpbQ6dmy-ici0O5-247" vertex="1">
          <mxGeometry x="210" y="42.5" width="120" height="55" as="geometry" />
        </mxCell>
        <mxCell id="L6B9nfpbQ6dmy-ici0O5-160" value="" style="endArrow=classic;html=1;rounded=0;exitX=0.5;exitY=1;exitDx=0;exitDy=0;entryX=0.5;entryY=0;entryDx=0;entryDy=0;entryPerimeter=0;" parent="L6B9nfpbQ6dmy-ici0O5-247" source="L6B9nfpbQ6dmy-ici0O5-253" target="L6B9nfpbQ6dmy-ici0O5-255" edge="1">
          <mxGeometry width="50" height="50" relative="1" as="geometry">
            <mxPoint x="290" y="150" as="sourcePoint" />
            <mxPoint x="210" y="170" as="targetPoint" />
            <Array as="points">
              <mxPoint x="270" y="140" />
            </Array>
          </mxGeometry>
        </mxCell>
        <mxCell id="L6B9nfpbQ6dmy-ici0O5-161" value="Registra disparo do&amp;nbsp;&lt;div&gt;email para histórico&amp;nbsp;&lt;/div&gt;" style="edgeLabel;html=1;align=center;verticalAlign=middle;resizable=0;points=[];" parent="L6B9nfpbQ6dmy-ici0O5-160" vertex="1" connectable="0">
          <mxGeometry x="-0.0898" relative="1" as="geometry">
            <mxPoint as="offset" />
          </mxGeometry>
        </mxCell>
        <mxCell id="L6B9nfpbQ6dmy-ici0O5-255" value="&lt;font style=&quot;font-size: 10px;&quot;&gt;Notificações&lt;/font&gt;" style="shape=cylinder3;whiteSpace=wrap;html=1;boundedLbl=1;backgroundOutline=1;size=15;" parent="L6B9nfpbQ6dmy-ici0O5-247" vertex="1">
          <mxGeometry x="242.25" y="160" width="55.5" height="70" as="geometry" />
        </mxCell>
        <mxCell id="L6B9nfpbQ6dmy-ici0O5-325" value="" style="endArrow=classic;html=1;rounded=0;entryX=0.5;entryY=1;entryDx=0;entryDy=0;exitX=0;exitY=0;exitDx=0;exitDy=45;exitPerimeter=0;" parent="L6B9nfpbQ6dmy-ici0O5-247" source="L6B9nfpbQ6dmy-ici0O5-255" target="L6B9nfpbQ6dmy-ici0O5-249" edge="1">
          <mxGeometry width="50" height="50" relative="1" as="geometry">
            <mxPoint x="40" y="42.5" as="sourcePoint" />
            <mxPoint x="90" y="-7.5" as="targetPoint" />
            <Array as="points">
              <mxPoint x="30" y="205.5" />
            </Array>
          </mxGeometry>
        </mxCell>
        <mxCell id="L6B9nfpbQ6dmy-ici0O5-256" value="PathParameter &quot;id&quot; representa um hash da simulação de empréstimo" style="text;html=1;align=left;verticalAlign=middle;whiteSpace=wrap;rounded=0;" parent="L6B9nfpbQ6dmy-ici0O5-236" vertex="1">
          <mxGeometry x="20" y="205" width="470" height="30" as="geometry" />
        </mxCell>
        <mxCell id="L6B9nfpbQ6dmy-ici0O5-257" value="Visão Empréstimos" style="swimlane;whiteSpace=wrap;html=1;" parent="1" vertex="1">
          <mxGeometry x="870" y="42.5" width="552.12" height="2237.5" as="geometry" />
        </mxCell>
        <mxCell id="L6B9nfpbQ6dmy-ici0O5-121" value="Container Empréstimo" style="swimlane;whiteSpace=wrap;html=1;" parent="L6B9nfpbQ6dmy-ici0O5-257" vertex="1">
          <mxGeometry x="20" y="40" width="502.12" height="330" as="geometry">
            <mxRectangle x="20" y="40" width="160" height="30" as="alternateBounds" />
          </mxGeometry>
        </mxCell>
        <mxCell id="L6B9nfpbQ6dmy-ici0O5-134" value="Microsserviço Empréstimos" style="swimlane;whiteSpace=wrap;html=1;startSize=40;" parent="L6B9nfpbQ6dmy-ici0O5-121" vertex="1">
          <mxGeometry x="12.12" y="30" width="490" height="180" as="geometry">
            <mxRectangle x="12.12" y="30" width="260" height="40" as="alternateBounds" />
          </mxGeometry>
        </mxCell>
        <mxCell id="L6B9nfpbQ6dmy-ici0O5-135" value="API POST&amp;lt;domain&amp;gt;/api/v1/emprestimos/simulacoes" style="rounded=0;whiteSpace=wrap;html=1;" parent="L6B9nfpbQ6dmy-ici0O5-134" vertex="1">
          <mxGeometry x="9.56" y="50" width="290.44" height="20" as="geometry" />
        </mxCell>
        <mxCell id="L6B9nfpbQ6dmy-ici0O5-136" value="API POST&amp;lt;domain&amp;gt;/api/v1/emprestimos/propostas" style="rounded=0;whiteSpace=wrap;html=1;" parent="L6B9nfpbQ6dmy-ici0O5-134" vertex="1">
          <mxGeometry x="9.56" y="80" width="290.44" height="20" as="geometry" />
        </mxCell>
        <mxCell id="L6B9nfpbQ6dmy-ici0O5-156" value="&lt;span style=&quot;font-size: 11px; text-wrap-mode: nowrap; background-color: rgb(255, 255, 255);&quot;&gt;Validação&amp;nbsp;&lt;/span&gt;&lt;span style=&quot;font-size: 11px; text-wrap-mode: nowrap; background-color: initial;&quot;&gt;score, atributos e&amp;nbsp;&lt;/span&gt;&lt;div style=&quot;font-size: 11px; text-wrap-mode: nowrap;&quot;&gt;risco cliente&lt;/div&gt;" style="rounded=0;whiteSpace=wrap;html=1;" parent="L6B9nfpbQ6dmy-ici0O5-134" vertex="1">
          <mxGeometry x="327.88" y="117.5" width="142.12" height="42.06" as="geometry" />
        </mxCell>
        <mxCell id="L6B9nfpbQ6dmy-ici0O5-165" value="Mensageria&lt;div&gt;Producer Notificação&lt;/div&gt;" style="rounded=0;whiteSpace=wrap;html=1;" parent="L6B9nfpbQ6dmy-ici0O5-134" vertex="1">
          <mxGeometry x="9.56" y="116.03" width="130.44" height="45" as="geometry" />
        </mxCell>
        <mxCell id="L6B9nfpbQ6dmy-ici0O5-356" value="" style="edgeStyle=orthogonalEdgeStyle;rounded=0;orthogonalLoop=1;jettySize=auto;html=1;" parent="L6B9nfpbQ6dmy-ici0O5-134" source="L6B9nfpbQ6dmy-ici0O5-269" target="L6B9nfpbQ6dmy-ici0O5-156" edge="1">
          <mxGeometry relative="1" as="geometry" />
        </mxCell>
        <mxCell id="L6B9nfpbQ6dmy-ici0O5-269" value="&lt;span style=&quot;font-size: 11px; text-wrap-mode: nowrap; background-color: rgb(255, 255, 255);&quot;&gt;Validação&amp;nbsp;&lt;/span&gt;&lt;span style=&quot;font-size: 11px; text-wrap-mode: nowrap; background-color: initial;&quot;&gt;dos parämetros&amp;nbsp;&lt;/span&gt;&lt;div&gt;&lt;span style=&quot;font-size: 11px; text-wrap-mode: nowrap; background-color: initial;&quot;&gt;da requisição,&amp;nbsp;&lt;/span&gt;&lt;/div&gt;&lt;div&gt;&lt;span style=&quot;font-size: 11px; text-wrap-mode: nowrap; background-color: initial;&quot;&gt;inclusive de negócio&lt;/span&gt;&lt;/div&gt;" style="rounded=0;whiteSpace=wrap;html=1;" parent="L6B9nfpbQ6dmy-ici0O5-134" vertex="1">
          <mxGeometry x="327.88" y="50" width="142.12" height="50" as="geometry" />
        </mxCell>
        <mxCell id="L6B9nfpbQ6dmy-ici0O5-142" value="Módulo Cálculos de Simulação / Proposta" style="rounded=0;whiteSpace=wrap;html=1;" parent="L6B9nfpbQ6dmy-ici0O5-134" vertex="1">
          <mxGeometry x="166.26" y="118.75" width="142.12" height="39.56" as="geometry" />
        </mxCell>
        <mxCell id="L6B9nfpbQ6dmy-ici0O5-357" value="" style="endArrow=classic;html=1;rounded=0;entryX=1;entryY=0.5;entryDx=0;entryDy=0;exitX=0;exitY=0.5;exitDx=0;exitDy=0;" parent="L6B9nfpbQ6dmy-ici0O5-134" source="L6B9nfpbQ6dmy-ici0O5-156" target="L6B9nfpbQ6dmy-ici0O5-142" edge="1">
          <mxGeometry width="50" height="50" relative="1" as="geometry">
            <mxPoint x="187.88" y="297.5" as="sourcePoint" />
            <mxPoint x="237.88" y="247.5" as="targetPoint" />
          </mxGeometry>
        </mxCell>
        <mxCell id="L6B9nfpbQ6dmy-ici0O5-358" value="" style="endArrow=classic;html=1;rounded=0;entryX=1;entryY=0.5;entryDx=0;entryDy=0;exitX=0;exitY=0.5;exitDx=0;exitDy=0;" parent="L6B9nfpbQ6dmy-ici0O5-134" source="L6B9nfpbQ6dmy-ici0O5-142" target="L6B9nfpbQ6dmy-ici0O5-165" edge="1">
          <mxGeometry width="50" height="50" relative="1" as="geometry">
            <mxPoint x="187.88" y="297.5" as="sourcePoint" />
            <mxPoint x="237.88" y="247.5" as="targetPoint" />
          </mxGeometry>
        </mxCell>
        <mxCell id="L6B9nfpbQ6dmy-ici0O5-38" value="&lt;font style=&quot;font-size: 10px;&quot;&gt;Empréstimos&lt;/font&gt;" style="shape=cylinder3;whiteSpace=wrap;html=1;boundedLbl=1;backgroundOutline=1;size=15;" parent="L6B9nfpbQ6dmy-ici0O5-121" vertex="1">
          <mxGeometry x="101.06000000000006" y="237.5" width="50" height="70" as="geometry" />
        </mxCell>
        <mxCell id="L6B9nfpbQ6dmy-ici0O5-170" value="Cache" style="shape=cylinder3;whiteSpace=wrap;html=1;boundedLbl=1;backgroundOutline=1;size=15;" parent="L6B9nfpbQ6dmy-ici0O5-121" vertex="1">
          <mxGeometry x="232.12" y="237.5" width="50" height="70" as="geometry" />
        </mxCell>
        <mxCell id="L6B9nfpbQ6dmy-ici0O5-177" value="&lt;span style=&quot;font-size: 10px;&quot;&gt;Clientes&lt;/span&gt;" style="shape=cylinder3;whiteSpace=wrap;html=1;boundedLbl=1;backgroundOutline=1;size=15;" parent="L6B9nfpbQ6dmy-ici0O5-121" vertex="1">
          <mxGeometry x="351.06000000000006" y="237.5" width="50" height="70" as="geometry" />
        </mxCell>
        <mxCell id="L6B9nfpbQ6dmy-ici0O5-258" value="&lt;span style=&quot;font-weight: 400; text-wrap-mode: nowrap; font-size: 11px; background-color: rgb(255, 255, 255);&quot;&gt;Validação&amp;nbsp;&lt;/span&gt;&lt;span style=&quot;font-weight: 400; text-wrap-mode: nowrap; background-color: initial; font-size: 11px;&quot;&gt;dos parämetros&amp;nbsp;&lt;/span&gt;&lt;span style=&quot;background-color: initial; font-size: 11px; text-wrap-mode: nowrap; font-weight: 400;&quot;&gt;da requisição,&amp;nbsp;&lt;/span&gt;&lt;span style=&quot;background-color: initial; font-size: 11px; text-wrap-mode: nowrap; font-weight: 400;&quot;&gt;inclusive de negócio&lt;/span&gt;" style="swimlane;whiteSpace=wrap;html=1;" parent="L6B9nfpbQ6dmy-ici0O5-257" vertex="1">
          <mxGeometry x="20" y="417.5" width="430" height="362.5" as="geometry" />
        </mxCell>
        <mxCell id="L6B9nfpbQ6dmy-ici0O5-259" value="" style="edgeStyle=orthogonalEdgeStyle;rounded=0;orthogonalLoop=1;jettySize=auto;html=1;entryX=0;entryY=0.5;entryDx=0;entryDy=0;" parent="L6B9nfpbQ6dmy-ici0O5-258" source="L6B9nfpbQ6dmy-ici0O5-260" target="L6B9nfpbQ6dmy-ici0O5-268" edge="1">
          <mxGeometry relative="1" as="geometry">
            <mxPoint x="80" y="70" as="targetPoint" />
          </mxGeometry>
        </mxCell>
        <mxCell id="L6B9nfpbQ6dmy-ici0O5-260" value="" style="ellipse;whiteSpace=wrap;html=1;aspect=fixed;" parent="L6B9nfpbQ6dmy-ici0O5-258" vertex="1">
          <mxGeometry x="20" y="56.25" width="30" height="30" as="geometry" />
        </mxCell>
        <mxCell id="L6B9nfpbQ6dmy-ici0O5-275" value="" style="edgeStyle=orthogonalEdgeStyle;rounded=0;orthogonalLoop=1;jettySize=auto;html=1;" parent="L6B9nfpbQ6dmy-ici0O5-258" source="L6B9nfpbQ6dmy-ici0O5-268" target="L6B9nfpbQ6dmy-ici0O5-273" edge="1">
          <mxGeometry relative="1" as="geometry" />
        </mxCell>
        <mxCell id="L6B9nfpbQ6dmy-ici0O5-268" value="Validar parâmetros da requisição" style="rounded=0;whiteSpace=wrap;html=1;" parent="L6B9nfpbQ6dmy-ici0O5-258" vertex="1">
          <mxGeometry x="90" y="42.5" width="100" height="57.5" as="geometry" />
        </mxCell>
        <mxCell id="L6B9nfpbQ6dmy-ici0O5-283" value="" style="edgeStyle=orthogonalEdgeStyle;rounded=0;orthogonalLoop=1;jettySize=auto;html=1;" parent="L6B9nfpbQ6dmy-ici0O5-258" source="L6B9nfpbQ6dmy-ici0O5-272" target="L6B9nfpbQ6dmy-ici0O5-279" edge="1">
          <mxGeometry relative="1" as="geometry" />
        </mxCell>
        <mxCell id="L6B9nfpbQ6dmy-ici0O5-272" value="Validar regras de negócio (ex: empréstimo pode ser solicitado a partir dos 18 anos)" style="rounded=0;whiteSpace=wrap;html=1;" parent="L6B9nfpbQ6dmy-ici0O5-258" vertex="1">
          <mxGeometry x="55" y="210" width="170" height="57.5" as="geometry" />
        </mxCell>
        <mxCell id="L6B9nfpbQ6dmy-ici0O5-276" value="não" style="edgeStyle=orthogonalEdgeStyle;rounded=0;orthogonalLoop=1;jettySize=auto;html=1;" parent="L6B9nfpbQ6dmy-ici0O5-258" source="L6B9nfpbQ6dmy-ici0O5-273" target="L6B9nfpbQ6dmy-ici0O5-272" edge="1">
          <mxGeometry relative="1" as="geometry" />
        </mxCell>
        <mxCell id="L6B9nfpbQ6dmy-ici0O5-278" value="sim" style="edgeStyle=orthogonalEdgeStyle;rounded=0;orthogonalLoop=1;jettySize=auto;html=1;" parent="L6B9nfpbQ6dmy-ici0O5-258" source="L6B9nfpbQ6dmy-ici0O5-273" target="L6B9nfpbQ6dmy-ici0O5-277" edge="1">
          <mxGeometry relative="1" as="geometry" />
        </mxCell>
        <mxCell id="L6B9nfpbQ6dmy-ici0O5-273" value="Tem parâmetro inválido" style="rhombus;whiteSpace=wrap;html=1;" parent="L6B9nfpbQ6dmy-ici0O5-258" vertex="1">
          <mxGeometry x="80" y="120" width="120" height="50" as="geometry" />
        </mxCell>
        <mxCell id="L6B9nfpbQ6dmy-ici0O5-277" value="fim" style="ellipse;whiteSpace=wrap;html=1;aspect=fixed;" parent="L6B9nfpbQ6dmy-ici0O5-258" vertex="1">
          <mxGeometry x="306" y="130" width="30" height="30" as="geometry" />
        </mxCell>
        <mxCell id="L6B9nfpbQ6dmy-ici0O5-286" value="" style="edgeStyle=orthogonalEdgeStyle;rounded=0;orthogonalLoop=1;jettySize=auto;html=1;" parent="L6B9nfpbQ6dmy-ici0O5-258" source="L6B9nfpbQ6dmy-ici0O5-279" target="L6B9nfpbQ6dmy-ici0O5-285" edge="1">
          <mxGeometry relative="1" as="geometry" />
        </mxCell>
        <mxCell id="L6B9nfpbQ6dmy-ici0O5-287" value="sim" style="edgeLabel;html=1;align=center;verticalAlign=middle;resizable=0;points=[];" parent="L6B9nfpbQ6dmy-ici0O5-286" vertex="1" connectable="0">
          <mxGeometry x="-0.1539" relative="1" as="geometry">
            <mxPoint as="offset" />
          </mxGeometry>
        </mxCell>
        <mxCell id="L6B9nfpbQ6dmy-ici0O5-279" value="Cliente válido" style="rhombus;whiteSpace=wrap;html=1;" parent="L6B9nfpbQ6dmy-ici0O5-258" vertex="1">
          <mxGeometry x="271" y="218.75" width="100" height="40" as="geometry" />
        </mxCell>
        <mxCell id="L6B9nfpbQ6dmy-ici0O5-284" value="não" style="endArrow=classic;html=1;rounded=0;exitX=0.5;exitY=0;exitDx=0;exitDy=0;entryX=0.5;entryY=1;entryDx=0;entryDy=0;" parent="L6B9nfpbQ6dmy-ici0O5-258" source="L6B9nfpbQ6dmy-ici0O5-279" target="L6B9nfpbQ6dmy-ici0O5-277" edge="1">
          <mxGeometry width="50" height="50" relative="1" as="geometry">
            <mxPoint x="380" y="160" as="sourcePoint" />
            <mxPoint x="430" y="110" as="targetPoint" />
          </mxGeometry>
        </mxCell>
        <mxCell id="L6B9nfpbQ6dmy-ici0O5-285" value="&lt;span style=&quot;text-wrap-mode: nowrap; font-size: 11px; background-color: rgb(255, 255, 255);&quot;&gt;Validação&amp;nbsp;&lt;/span&gt;&lt;span style=&quot;text-wrap-mode: nowrap; background-color: initial; font-size: 11px;&quot;&gt;score, atributos e&amp;nbsp;&lt;/span&gt;&lt;div style=&quot;text-wrap-mode: nowrap; font-size: 11px;&quot;&gt;risco cliente&lt;/div&gt;" style="rounded=0;whiteSpace=wrap;html=1;" parent="L6B9nfpbQ6dmy-ici0O5-258" vertex="1">
          <mxGeometry x="236" y="300" width="170" height="40" as="geometry" />
        </mxCell>
        <mxCell id="L6B9nfpbQ6dmy-ici0O5-288" value="&lt;span style=&quot;font-weight: 400; text-wrap-mode: nowrap; font-size: 11px; background-color: rgb(255, 255, 255);&quot;&gt;Validação&amp;nbsp;&lt;/span&gt;&lt;span style=&quot;font-weight: 400; text-wrap-mode: nowrap; background-color: initial; font-size: 11px;&quot;&gt;score, atributos e&amp;nbsp;&lt;/span&gt;&lt;span style=&quot;font-size: 11px; font-weight: 400; text-wrap-mode: nowrap; background-color: initial;&quot;&gt;risco cliente&lt;/span&gt;" style="swimlane;whiteSpace=wrap;html=1;" parent="L6B9nfpbQ6dmy-ici0O5-257" vertex="1">
          <mxGeometry x="20" y="807.5" width="436" height="472.5" as="geometry" />
        </mxCell>
        <mxCell id="L6B9nfpbQ6dmy-ici0O5-289" value="" style="edgeStyle=orthogonalEdgeStyle;rounded=0;orthogonalLoop=1;jettySize=auto;html=1;entryX=0;entryY=0.5;entryDx=0;entryDy=0;" parent="L6B9nfpbQ6dmy-ici0O5-288" source="L6B9nfpbQ6dmy-ici0O5-290" target="L6B9nfpbQ6dmy-ici0O5-292" edge="1">
          <mxGeometry relative="1" as="geometry">
            <mxPoint x="80" y="70" as="targetPoint" />
          </mxGeometry>
        </mxCell>
        <mxCell id="L6B9nfpbQ6dmy-ici0O5-290" value="" style="ellipse;whiteSpace=wrap;html=1;aspect=fixed;" parent="L6B9nfpbQ6dmy-ici0O5-288" vertex="1">
          <mxGeometry x="15" y="55" width="30" height="30" as="geometry" />
        </mxCell>
        <mxCell id="L6B9nfpbQ6dmy-ici0O5-291" value="" style="edgeStyle=orthogonalEdgeStyle;rounded=0;orthogonalLoop=1;jettySize=auto;html=1;" parent="L6B9nfpbQ6dmy-ici0O5-288" source="L6B9nfpbQ6dmy-ici0O5-292" target="L6B9nfpbQ6dmy-ici0O5-297" edge="1">
          <mxGeometry relative="1" as="geometry" />
        </mxCell>
        <mxCell id="L6B9nfpbQ6dmy-ici0O5-292" value="Consultar score e risco do cliente" style="rounded=0;whiteSpace=wrap;html=1;" parent="L6B9nfpbQ6dmy-ici0O5-288" vertex="1">
          <mxGeometry x="90" y="36.25" width="140" height="67.5" as="geometry" />
        </mxCell>
        <mxCell id="L6B9nfpbQ6dmy-ici0O5-297" value="Tem no cache" style="rhombus;whiteSpace=wrap;html=1;" parent="L6B9nfpbQ6dmy-ici0O5-288" vertex="1">
          <mxGeometry x="115" y="138.75" width="90" height="50" as="geometry" />
        </mxCell>
        <mxCell id="L6B9nfpbQ6dmy-ici0O5-312" value="" style="endArrow=classic;html=1;rounded=0;exitX=0.5;exitY=1;exitDx=0;exitDy=0;entryX=0.5;entryY=0;entryDx=0;entryDy=0;entryPerimeter=0;" parent="L6B9nfpbQ6dmy-ici0O5-288" source="L6B9nfpbQ6dmy-ici0O5-297" target="mGnls-kepnsf9FTQ0FWG-36" edge="1">
          <mxGeometry width="50" height="50" relative="1" as="geometry">
            <mxPoint x="125" y="215" as="sourcePoint" />
            <mxPoint x="180.30769230769238" y="230" as="targetPoint" />
          </mxGeometry>
        </mxCell>
        <mxCell id="L6B9nfpbQ6dmy-ici0O5-313" value="Sim" style="edgeLabel;html=1;align=center;verticalAlign=middle;resizable=0;points=[];" parent="L6B9nfpbQ6dmy-ici0O5-312" vertex="1" connectable="0">
          <mxGeometry x="-0.3333" y="-1" relative="1" as="geometry">
            <mxPoint as="offset" />
          </mxGeometry>
        </mxCell>
        <mxCell id="L6B9nfpbQ6dmy-ici0O5-314" value="" style="endArrow=classic;html=1;rounded=0;exitX=1;exitY=0.5;exitDx=0;exitDy=0;entryX=0;entryY=0.5;entryDx=0;entryDy=0;" parent="L6B9nfpbQ6dmy-ici0O5-288" source="L6B9nfpbQ6dmy-ici0O5-297" target="L6B9nfpbQ6dmy-ici0O5-324" edge="1">
          <mxGeometry width="50" height="50" relative="1" as="geometry">
            <mxPoint x="210" y="154.5" as="sourcePoint" />
            <mxPoint x="277" y="154.5" as="targetPoint" />
          </mxGeometry>
        </mxCell>
        <mxCell id="L6B9nfpbQ6dmy-ici0O5-315" value="Não" style="edgeLabel;html=1;align=center;verticalAlign=middle;resizable=0;points=[];" parent="L6B9nfpbQ6dmy-ici0O5-314" vertex="1" connectable="0">
          <mxGeometry x="-0.3333" y="-1" relative="1" as="geometry">
            <mxPoint as="offset" />
          </mxGeometry>
        </mxCell>
        <mxCell id="L6B9nfpbQ6dmy-ici0O5-324" value="Consultar API Serasa Experian / SPC&lt;div&gt;sobre score e risco do cliente&lt;/div&gt;" style="rounded=0;whiteSpace=wrap;html=1;" parent="L6B9nfpbQ6dmy-ici0O5-288" vertex="1">
          <mxGeometry x="270" y="121.25" width="140" height="67.5" as="geometry" />
        </mxCell>
        <mxCell id="mGnls-kepnsf9FTQ0FWG-36" value="Cache" style="shape=cylinder3;whiteSpace=wrap;html=1;boundedLbl=1;backgroundOutline=1;size=15;" vertex="1" parent="L6B9nfpbQ6dmy-ici0O5-288">
          <mxGeometry x="130" y="310" width="57.5" height="70" as="geometry" />
        </mxCell>
        <mxCell id="mGnls-kepnsf9FTQ0FWG-37" value="Clientes" style="shape=cylinder3;whiteSpace=wrap;html=1;boundedLbl=1;backgroundOutline=1;size=15;" vertex="1" parent="L6B9nfpbQ6dmy-ici0O5-288">
          <mxGeometry x="314.5" y="390" width="51" height="70" as="geometry" />
        </mxCell>
        <mxCell id="mGnls-kepnsf9FTQ0FWG-38" value="fim" style="ellipse;whiteSpace=wrap;html=1;aspect=fixed;" vertex="1" parent="L6B9nfpbQ6dmy-ici0O5-288">
          <mxGeometry x="200" y="267.5" width="30" height="30" as="geometry" />
        </mxCell>
        <mxCell id="mGnls-kepnsf9FTQ0FWG-39" value="" style="edgeStyle=orthogonalEdgeStyle;rounded=0;orthogonalLoop=1;jettySize=auto;html=1;entryX=0.5;entryY=0;entryDx=0;entryDy=0;" edge="1" parent="L6B9nfpbQ6dmy-ici0O5-288" source="mGnls-kepnsf9FTQ0FWG-42" target="mGnls-kepnsf9FTQ0FWG-44">
          <mxGeometry relative="1" as="geometry">
            <mxPoint x="386" y="344.5" as="targetPoint" />
          </mxGeometry>
        </mxCell>
        <mxCell id="mGnls-kepnsf9FTQ0FWG-40" value="Sim" style="edgeLabel;html=1;align=center;verticalAlign=middle;resizable=0;points=[];" vertex="1" connectable="0" parent="mGnls-kepnsf9FTQ0FWG-39">
          <mxGeometry x="-0.186" y="-1" relative="1" as="geometry">
            <mxPoint as="offset" />
          </mxGeometry>
        </mxCell>
        <mxCell id="mGnls-kepnsf9FTQ0FWG-41" value="Não" style="edgeStyle=orthogonalEdgeStyle;rounded=0;orthogonalLoop=1;jettySize=auto;html=1;entryX=1;entryY=0;entryDx=0;entryDy=0;" edge="1" parent="L6B9nfpbQ6dmy-ici0O5-288" source="mGnls-kepnsf9FTQ0FWG-42" target="mGnls-kepnsf9FTQ0FWG-38">
          <mxGeometry relative="1" as="geometry">
            <Array as="points">
              <mxPoint x="265" y="243" />
              <mxPoint x="265" y="260" />
              <mxPoint x="250" y="260" />
              <mxPoint x="250" y="272" />
            </Array>
          </mxGeometry>
        </mxCell>
        <mxCell id="mGnls-kepnsf9FTQ0FWG-42" value="Encontrou taxa" style="rhombus;whiteSpace=wrap;html=1;" vertex="1" parent="L6B9nfpbQ6dmy-ici0O5-288">
          <mxGeometry x="300" y="217.5" width="80" height="50" as="geometry" />
        </mxCell>
        <mxCell id="mGnls-kepnsf9FTQ0FWG-43" value="" style="edgeStyle=orthogonalEdgeStyle;rounded=0;orthogonalLoop=1;jettySize=auto;html=1;" edge="1" parent="L6B9nfpbQ6dmy-ici0O5-288" source="mGnls-kepnsf9FTQ0FWG-44" target="mGnls-kepnsf9FTQ0FWG-37">
          <mxGeometry relative="1" as="geometry" />
        </mxCell>
        <mxCell id="mGnls-kepnsf9FTQ0FWG-44" value="Registrar score,&lt;div&gt;e risco do cliente&lt;/div&gt;" style="rounded=0;whiteSpace=wrap;html=1;" vertex="1" parent="L6B9nfpbQ6dmy-ici0O5-288">
          <mxGeometry x="290" y="319" width="100" height="51" as="geometry" />
        </mxCell>
        <mxCell id="mGnls-kepnsf9FTQ0FWG-45" value="" style="endArrow=classic;html=1;rounded=0;entryX=1;entryY=0;entryDx=0;entryDy=45;entryPerimeter=0;exitX=0;exitY=0.5;exitDx=0;exitDy=0;" edge="1" parent="L6B9nfpbQ6dmy-ici0O5-288" source="mGnls-kepnsf9FTQ0FWG-44" target="mGnls-kepnsf9FTQ0FWG-36">
          <mxGeometry width="50" height="50" relative="1" as="geometry">
            <mxPoint x="106" y="331.5" as="sourcePoint" />
            <mxPoint x="156" y="281.5" as="targetPoint" />
            <Array as="points" />
          </mxGeometry>
        </mxCell>
        <mxCell id="mGnls-kepnsf9FTQ0FWG-46" value="" style="endArrow=classic;html=1;rounded=0;exitX=1;exitY=0;exitDx=0;exitDy=15;exitPerimeter=0;entryX=0;entryY=0.5;entryDx=0;entryDy=0;" edge="1" parent="L6B9nfpbQ6dmy-ici0O5-288" source="mGnls-kepnsf9FTQ0FWG-36" target="mGnls-kepnsf9FTQ0FWG-38">
          <mxGeometry width="50" height="50" relative="1" as="geometry">
            <mxPoint x="106" y="331.5" as="sourcePoint" />
            <mxPoint x="156" y="281.5" as="targetPoint" />
          </mxGeometry>
        </mxCell>
        <mxCell id="mGnls-kepnsf9FTQ0FWG-47" value="" style="endArrow=classic;html=1;rounded=0;exitX=0.5;exitY=1;exitDx=0;exitDy=0;entryX=0.5;entryY=0;entryDx=0;entryDy=0;" edge="1" parent="L6B9nfpbQ6dmy-ici0O5-288" source="L6B9nfpbQ6dmy-ici0O5-324" target="mGnls-kepnsf9FTQ0FWG-42">
          <mxGeometry width="50" height="50" relative="1" as="geometry">
            <mxPoint x="400" y="230" as="sourcePoint" />
            <mxPoint x="450" y="180" as="targetPoint" />
          </mxGeometry>
        </mxCell>
        <mxCell id="L6B9nfpbQ6dmy-ici0O5-327" value="&lt;span style=&quot;font-weight: 400;&quot;&gt;Módulo Cálculos de Simulação / Proposta&lt;/span&gt;" style="swimlane;whiteSpace=wrap;html=1;" parent="L6B9nfpbQ6dmy-ici0O5-257" vertex="1">
          <mxGeometry x="20" y="1307.5" width="513" height="912.5" as="geometry" />
        </mxCell>
        <mxCell id="L6B9nfpbQ6dmy-ici0O5-346" value="&lt;span style=&quot;font-weight: normal;&quot;&gt;Verificar taxa de empréstimo&lt;/span&gt;" style="swimlane;whiteSpace=wrap;html=1;" parent="L6B9nfpbQ6dmy-ici0O5-327" vertex="1">
          <mxGeometry x="27.12" y="120" width="472.88" height="510" as="geometry" />
        </mxCell>
        <mxCell id="L6B9nfpbQ6dmy-ici0O5-328" value="" style="edgeStyle=orthogonalEdgeStyle;rounded=0;orthogonalLoop=1;jettySize=auto;html=1;entryX=0;entryY=0.5;entryDx=0;entryDy=0;" parent="L6B9nfpbQ6dmy-ici0O5-346" source="L6B9nfpbQ6dmy-ici0O5-329" target="L6B9nfpbQ6dmy-ici0O5-331" edge="1">
          <mxGeometry relative="1" as="geometry">
            <mxPoint x="85" y="56.870000000000005" as="targetPoint" />
          </mxGeometry>
        </mxCell>
        <mxCell id="L6B9nfpbQ6dmy-ici0O5-329" value="" style="ellipse;whiteSpace=wrap;html=1;aspect=fixed;" parent="L6B9nfpbQ6dmy-ici0O5-346" vertex="1">
          <mxGeometry x="20" y="41.870000000000005" width="30" height="30" as="geometry" />
        </mxCell>
        <mxCell id="L6B9nfpbQ6dmy-ici0O5-330" value="" style="edgeStyle=orthogonalEdgeStyle;rounded=0;orthogonalLoop=1;jettySize=auto;html=1;" parent="L6B9nfpbQ6dmy-ici0O5-346" source="L6B9nfpbQ6dmy-ici0O5-331" target="L6B9nfpbQ6dmy-ici0O5-332" edge="1">
          <mxGeometry relative="1" as="geometry" />
        </mxCell>
        <mxCell id="L6B9nfpbQ6dmy-ici0O5-331" value="Verificar taxa de empréstimo" style="rounded=0;whiteSpace=wrap;html=1;" parent="L6B9nfpbQ6dmy-ici0O5-346" vertex="1">
          <mxGeometry x="105" y="30" width="120" height="53.75" as="geometry" />
        </mxCell>
        <mxCell id="L6B9nfpbQ6dmy-ici0O5-332" value="Tem no cache" style="rhombus;whiteSpace=wrap;html=1;" parent="L6B9nfpbQ6dmy-ici0O5-346" vertex="1">
          <mxGeometry x="120" y="116.87" width="90" height="50" as="geometry" />
        </mxCell>
        <mxCell id="L6B9nfpbQ6dmy-ici0O5-333" value="" style="edgeStyle=orthogonalEdgeStyle;rounded=0;orthogonalLoop=1;jettySize=auto;html=1;entryX=0.5;entryY=0;entryDx=0;entryDy=0;exitX=0.5;exitY=1;exitDx=0;exitDy=0;exitPerimeter=0;" parent="L6B9nfpbQ6dmy-ici0O5-346" source="L6B9nfpbQ6dmy-ici0O5-334" target="L6B9nfpbQ6dmy-ici0O5-364" edge="1">
          <mxGeometry relative="1" as="geometry">
            <mxPoint x="119.99999999999989" y="256.8699999999999" as="targetPoint" />
          </mxGeometry>
        </mxCell>
        <mxCell id="L6B9nfpbQ6dmy-ici0O5-334" value="Cache" style="shape=cylinder3;whiteSpace=wrap;html=1;boundedLbl=1;backgroundOutline=1;size=15;" parent="L6B9nfpbQ6dmy-ici0O5-346" vertex="1">
          <mxGeometry x="195.16" y="220" width="57.12" height="73.13" as="geometry" />
        </mxCell>
        <mxCell id="L6B9nfpbQ6dmy-ici0O5-335" value="" style="endArrow=classic;html=1;rounded=0;exitX=0.5;exitY=1;exitDx=0;exitDy=0;entryX=0;entryY=0.5;entryDx=0;entryDy=0;entryPerimeter=0;" parent="L6B9nfpbQ6dmy-ici0O5-346" source="L6B9nfpbQ6dmy-ici0O5-332" target="L6B9nfpbQ6dmy-ici0O5-334" edge="1">
          <mxGeometry width="50" height="50" relative="1" as="geometry">
            <mxPoint x="130" y="201.87" as="sourcePoint" />
            <mxPoint x="182.88" y="270" as="targetPoint" />
            <Array as="points">
              <mxPoint x="162.88" y="257" />
            </Array>
          </mxGeometry>
        </mxCell>
        <mxCell id="L6B9nfpbQ6dmy-ici0O5-336" value="Sim" style="edgeLabel;html=1;align=center;verticalAlign=middle;resizable=0;points=[];" parent="L6B9nfpbQ6dmy-ici0O5-335" vertex="1" connectable="0">
          <mxGeometry x="-0.3333" y="-1" relative="1" as="geometry">
            <mxPoint as="offset" />
          </mxGeometry>
        </mxCell>
        <mxCell id="L6B9nfpbQ6dmy-ici0O5-337" value="" style="endArrow=classic;html=1;rounded=0;exitX=1;exitY=0.5;exitDx=0;exitDy=0;entryX=0;entryY=0.5;entryDx=0;entryDy=0;" parent="L6B9nfpbQ6dmy-ici0O5-346" source="L6B9nfpbQ6dmy-ici0O5-332" target="L6B9nfpbQ6dmy-ici0O5-344" edge="1">
          <mxGeometry width="50" height="50" relative="1" as="geometry">
            <mxPoint x="215" y="141.37" as="sourcePoint" />
            <mxPoint x="282" y="141.37" as="targetPoint" />
          </mxGeometry>
        </mxCell>
        <mxCell id="L6B9nfpbQ6dmy-ici0O5-338" value="Não" style="edgeLabel;html=1;align=center;verticalAlign=middle;resizable=0;points=[];" parent="L6B9nfpbQ6dmy-ici0O5-337" vertex="1" connectable="0">
          <mxGeometry x="-0.3333" y="-1" relative="1" as="geometry">
            <mxPoint as="offset" />
          </mxGeometry>
        </mxCell>
        <mxCell id="L6B9nfpbQ6dmy-ici0O5-344" value="Consultar taxa pela API do microserviço de taxas" style="rounded=0;whiteSpace=wrap;html=1;" parent="L6B9nfpbQ6dmy-ici0O5-346" vertex="1">
          <mxGeometry x="275" y="108.12" width="155" height="67.5" as="geometry" />
        </mxCell>
        <mxCell id="L6B9nfpbQ6dmy-ici0O5-368" value="Sim" style="edgeStyle=orthogonalEdgeStyle;rounded=0;orthogonalLoop=1;jettySize=auto;html=1;" parent="L6B9nfpbQ6dmy-ici0O5-346" source="L6B9nfpbQ6dmy-ici0O5-364" target="L6B9nfpbQ6dmy-ici0O5-365" edge="1">
          <mxGeometry relative="1" as="geometry" />
        </mxCell>
        <mxCell id="L6B9nfpbQ6dmy-ici0O5-364" value="Tem taxa" style="rhombus;whiteSpace=wrap;html=1;" parent="L6B9nfpbQ6dmy-ici0O5-346" vertex="1">
          <mxGeometry x="183.72" y="360.63" width="80" height="53.13" as="geometry" />
        </mxCell>
        <mxCell id="L6B9nfpbQ6dmy-ici0O5-365" value="Calcular empréstimo" style="rounded=0;whiteSpace=wrap;html=1;" parent="L6B9nfpbQ6dmy-ici0O5-346" vertex="1">
          <mxGeometry x="155.88" y="460" width="135.68" height="40" as="geometry" />
        </mxCell>
        <mxCell id="L6B9nfpbQ6dmy-ici0O5-366" value="Enviar erro que sistema está indisponível" style="rounded=0;whiteSpace=wrap;html=1;" parent="L6B9nfpbQ6dmy-ici0O5-346" vertex="1">
          <mxGeometry x="312.88" y="360.63" width="117.12" height="54.38" as="geometry" />
        </mxCell>
        <mxCell id="L6B9nfpbQ6dmy-ici0O5-367" value="Não" style="endArrow=classic;html=1;rounded=0;exitX=1;exitY=0.5;exitDx=0;exitDy=0;entryX=0;entryY=0.5;entryDx=0;entryDy=0;" parent="L6B9nfpbQ6dmy-ici0O5-346" source="L6B9nfpbQ6dmy-ici0O5-364" target="L6B9nfpbQ6dmy-ici0O5-366" edge="1">
          <mxGeometry width="50" height="50" relative="1" as="geometry">
            <mxPoint x="214.44" y="300" as="sourcePoint" />
            <mxPoint x="74.44" y="360" as="targetPoint" />
            <Array as="points" />
          </mxGeometry>
        </mxCell>
        <mxCell id="mGnls-kepnsf9FTQ0FWG-28" value="Encontrou&amp;nbsp;&lt;div&gt;taxa&lt;/div&gt;" style="rhombus;whiteSpace=wrap;html=1;" vertex="1" parent="L6B9nfpbQ6dmy-ici0O5-346">
          <mxGeometry x="307.4999999999999" y="200" width="90" height="50" as="geometry" />
        </mxCell>
        <mxCell id="mGnls-kepnsf9FTQ0FWG-29" value="" style="endArrow=classic;html=1;rounded=0;exitX=0.5;exitY=1;exitDx=0;exitDy=0;entryX=0.5;entryY=0;entryDx=0;entryDy=0;" edge="1" parent="L6B9nfpbQ6dmy-ici0O5-346" source="L6B9nfpbQ6dmy-ici0O5-344" target="mGnls-kepnsf9FTQ0FWG-28">
          <mxGeometry width="50" height="50" relative="1" as="geometry">
            <mxPoint x="112.88" y="310" as="sourcePoint" />
            <mxPoint x="162.88" y="260" as="targetPoint" />
          </mxGeometry>
        </mxCell>
        <mxCell id="mGnls-kepnsf9FTQ0FWG-31" value="Registrar taxa" style="rounded=0;whiteSpace=wrap;html=1;" vertex="1" parent="L6B9nfpbQ6dmy-ici0O5-346">
          <mxGeometry x="301.25" y="293.13" width="102.5" height="40" as="geometry" />
        </mxCell>
        <mxCell id="mGnls-kepnsf9FTQ0FWG-32" value="" style="endArrow=classic;html=1;rounded=0;exitX=0;exitY=0.5;exitDx=0;exitDy=0;entryX=1;entryY=0;entryDx=0;entryDy=47.3475;entryPerimeter=0;" edge="1" parent="L6B9nfpbQ6dmy-ici0O5-346" source="mGnls-kepnsf9FTQ0FWG-31" target="L6B9nfpbQ6dmy-ici0O5-334">
          <mxGeometry width="50" height="50" relative="1" as="geometry">
            <mxPoint x="172.88" y="330" as="sourcePoint" />
            <mxPoint x="222.88" y="280" as="targetPoint" />
          </mxGeometry>
        </mxCell>
        <mxCell id="mGnls-kepnsf9FTQ0FWG-33" value="Sim" style="endArrow=classic;html=1;rounded=0;exitX=0.5;exitY=1;exitDx=0;exitDy=0;entryX=0.5;entryY=0;entryDx=0;entryDy=0;" edge="1" parent="L6B9nfpbQ6dmy-ici0O5-346" source="mGnls-kepnsf9FTQ0FWG-28" target="mGnls-kepnsf9FTQ0FWG-31">
          <mxGeometry width="50" height="50" relative="1" as="geometry">
            <mxPoint x="172.88" y="330" as="sourcePoint" />
            <mxPoint x="222.88" y="280" as="targetPoint" />
          </mxGeometry>
        </mxCell>
        <mxCell id="mGnls-kepnsf9FTQ0FWG-34" value="" style="endArrow=classic;html=1;rounded=0;exitX=1;exitY=0.5;exitDx=0;exitDy=0;entryX=1;entryY=0.5;entryDx=0;entryDy=0;" edge="1" parent="L6B9nfpbQ6dmy-ici0O5-346" source="mGnls-kepnsf9FTQ0FWG-28" target="L6B9nfpbQ6dmy-ici0O5-366">
          <mxGeometry width="50" height="50" relative="1" as="geometry">
            <mxPoint x="429.9999999999999" y="240" as="sourcePoint" />
            <mxPoint x="479.9999999999999" y="190" as="targetPoint" />
            <Array as="points">
              <mxPoint x="442.88" y="225" />
              <mxPoint x="442.88" y="388" />
            </Array>
          </mxGeometry>
        </mxCell>
        <mxCell id="mGnls-kepnsf9FTQ0FWG-35" value="Não" style="edgeLabel;html=1;align=center;verticalAlign=middle;resizable=0;points=[];" vertex="1" connectable="0" parent="mGnls-kepnsf9FTQ0FWG-34">
          <mxGeometry x="0.0321" y="-2" relative="1" as="geometry">
            <mxPoint as="offset" />
          </mxGeometry>
        </mxCell>
        <mxCell id="L6B9nfpbQ6dmy-ici0O5-347" value="Verificar taxa de empréstimo" style="rounded=0;whiteSpace=wrap;html=1;" parent="L6B9nfpbQ6dmy-ici0O5-327" vertex="1">
          <mxGeometry x="27.11999999999989" y="40" width="120" height="53.75" as="geometry" />
        </mxCell>
        <mxCell id="L6B9nfpbQ6dmy-ici0O5-348" value="Calcular empréstimo" style="rounded=0;whiteSpace=wrap;html=1;" parent="L6B9nfpbQ6dmy-ici0O5-327" vertex="1">
          <mxGeometry x="175.43999999999983" y="40" width="120" height="53.75" as="geometry" />
        </mxCell>
        <mxCell id="L6B9nfpbQ6dmy-ici0O5-389" value="&lt;span style=&quot;font-weight: 400;&quot;&gt;Calcular empréstimo&lt;/span&gt;" style="swimlane;whiteSpace=wrap;html=1;" parent="L6B9nfpbQ6dmy-ici0O5-327" vertex="1">
          <mxGeometry x="27.12" y="660" width="470" height="240" as="geometry" />
        </mxCell>
        <mxCell id="L6B9nfpbQ6dmy-ici0O5-390" value="" style="edgeStyle=orthogonalEdgeStyle;rounded=0;orthogonalLoop=1;jettySize=auto;html=1;entryX=0;entryY=0.5;entryDx=0;entryDy=0;" parent="L6B9nfpbQ6dmy-ici0O5-389" source="L6B9nfpbQ6dmy-ici0O5-391" target="L6B9nfpbQ6dmy-ici0O5-393" edge="1">
          <mxGeometry relative="1" as="geometry">
            <mxPoint x="98.55999999999995" y="69.67999999999984" as="targetPoint" />
          </mxGeometry>
        </mxCell>
        <mxCell id="L6B9nfpbQ6dmy-ici0O5-391" value="" style="ellipse;whiteSpace=wrap;html=1;aspect=fixed;" parent="L6B9nfpbQ6dmy-ici0O5-389" vertex="1">
          <mxGeometry x="33.56000000000006" y="54.679999999999836" width="30" height="30" as="geometry" />
        </mxCell>
        <mxCell id="L6B9nfpbQ6dmy-ici0O5-393" value="Realizar cálculo do empréstimo" style="rounded=0;whiteSpace=wrap;html=1;" parent="L6B9nfpbQ6dmy-ici0O5-389" vertex="1">
          <mxGeometry x="118.55999999999995" y="42.809999999999945" width="120" height="53.75" as="geometry" />
        </mxCell>
        <mxCell id="L6B9nfpbQ6dmy-ici0O5-395" value="" style="edgeStyle=orthogonalEdgeStyle;rounded=0;orthogonalLoop=1;jettySize=auto;html=1;exitX=1;exitY=0.5;exitDx=0;exitDy=0;entryX=0;entryY=0.5;entryDx=0;entryDy=0;" parent="L6B9nfpbQ6dmy-ici0O5-389" source="L6B9nfpbQ6dmy-ici0O5-393" target="L6B9nfpbQ6dmy-ici0O5-409" edge="1">
          <mxGeometry relative="1" as="geometry">
            <mxPoint x="320" y="70" as="targetPoint" />
          </mxGeometry>
        </mxCell>
        <mxCell id="L6B9nfpbQ6dmy-ici0O5-411" value="Cria uma mensagem com&amp;nbsp;&lt;div&gt;os dados da simulação / proposta&lt;/div&gt;" style="edgeLabel;html=1;align=center;verticalAlign=middle;resizable=0;points=[];" parent="L6B9nfpbQ6dmy-ici0O5-395" vertex="1" connectable="0">
          <mxGeometry x="-0.0977" y="-3" relative="1" as="geometry">
            <mxPoint as="offset" />
          </mxGeometry>
        </mxCell>
        <mxCell id="L6B9nfpbQ6dmy-ici0O5-409" value="Mensageria&lt;div&gt;Producer Notificação&lt;/div&gt;" style="rounded=0;whiteSpace=wrap;html=1;" parent="L6B9nfpbQ6dmy-ici0O5-389" vertex="1">
          <mxGeometry x="320" y="180.0000000000001" width="142.12" height="45" as="geometry" />
        </mxCell>
        <mxCell id="L6B9nfpbQ6dmy-ici0O5-425" value="&lt;font style=&quot;font-size: 10px;&quot;&gt;Empréstimos&lt;/font&gt;" style="shape=cylinder3;whiteSpace=wrap;html=1;boundedLbl=1;backgroundOutline=1;size=15;" parent="L6B9nfpbQ6dmy-ici0O5-389" vertex="1">
          <mxGeometry x="68.56" y="155" width="50" height="70" as="geometry" />
        </mxCell>
        <mxCell id="L6B9nfpbQ6dmy-ici0O5-426" value="" style="endArrow=classic;html=1;rounded=0;entryX=0.5;entryY=0;entryDx=0;entryDy=0;entryPerimeter=0;exitX=0.25;exitY=1;exitDx=0;exitDy=0;" parent="L6B9nfpbQ6dmy-ici0O5-389" source="L6B9nfpbQ6dmy-ici0O5-393" target="L6B9nfpbQ6dmy-ici0O5-425" edge="1">
          <mxGeometry width="50" height="50" relative="1" as="geometry">
            <mxPoint x="350" y="120" as="sourcePoint" />
            <mxPoint x="400" y="70" as="targetPoint" />
          </mxGeometry>
        </mxCell>
        <mxCell id="L6B9nfpbQ6dmy-ici0O5-427" value="Registra empréstimo&amp;nbsp;&lt;div&gt;para histórico&lt;/div&gt;" style="edgeLabel;html=1;align=center;verticalAlign=middle;resizable=0;points=[];" parent="L6B9nfpbQ6dmy-ici0O5-426" vertex="1" connectable="0">
          <mxGeometry x="0.0333" y="-1" relative="1" as="geometry">
            <mxPoint as="offset" />
          </mxGeometry>
        </mxCell>
      </root>
    </mxGraphModel>
  </diagram>
  <diagram id="HIACPT_aDqsPeDzcXJSw" name="Container Emprestimos">
    <mxGraphModel dx="1050" dy="557" grid="1" gridSize="10" guides="1" tooltips="1" connect="1" arrows="1" fold="1" page="1" pageScale="1" pageWidth="827" pageHeight="1169" math="0" shadow="0">
      <root>
        <mxCell id="0" />
        <mxCell id="1" parent="0" />
      </root>
    </mxGraphModel>
  </diagram>
  <diagram id="PwcYAB8Dh2mumR2qE8KP" name="Container Notificações">
    <mxGraphModel dx="1050" dy="557" grid="1" gridSize="10" guides="1" tooltips="1" connect="1" arrows="1" fold="1" page="1" pageScale="1" pageWidth="827" pageHeight="1169" math="0" shadow="0">
      <root>
        <mxCell id="0" />
        <mxCell id="1" parent="0" />
      </root>
    </mxGraphModel>
  </diagram>
  <diagram id="o6R4wSz2HBi4LdOJTmbp" name="Container Taxas">
    <mxGraphModel dx="1050" dy="557" grid="1" gridSize="10" guides="1" tooltips="1" connect="1" arrows="1" fold="1" page="1" pageScale="1" pageWidth="827" pageHeight="1169" math="0" shadow="0">
      <root>
        <mxCell id="0" />
        <mxCell id="1" parent="0" />
      </root>
    </mxGraphModel>
  </diagram>
</mxfile>
